<svg xmlns="http://www.w3.org/2000/svg" xmlns:xlink="http://www.w3.org/1999/xlink" xmlns:lucid="lucid" width="1641.34" height="1220.02"><g transform="translate(0 0)" lucid:page-tab-id="0_0"><path d="M159.52 128.1c0-4.42 3.6-8 8-8h224c4.42 0 8 3.58 8 8v44c0 4.42-3.58 8-8 8h-224c-4.4 0-8-3.58-8-8z" fill="none"/><use xlink:href="#a" transform="matrix(1,0,0,1,159.5245605035575,120.10139455730797) translate(0 35.37777777777778)"/><path d="M445 338.12c0-4.42 3.58-8 8-8h224c4.42 0 8 3.58 8 8v44c0 4.4-3.58 8-8 8H453c-4.42 0-8-3.6-8-8z" fill="none"/><use xlink:href="#b" transform="matrix(1,0,0,1,444.99737905095185,330.11552827384924) translate(68.50030864197532 35.37777777777778)"/><path d="M322.26 505.25c0-4.42 3.58-8 8-8h224c4.42 0 8 3.58 8 8v44c0 4.42-3.58 8-8 8h-224c-4.42 0-8-3.58-8-8z" fill="none"/><use xlink:href="#b" transform="matrix(1,0,0,1,322.2609697772546,497.25090153118947) translate(68.50030864197532 35.37777777777778)"/><path d="M618.14 869.42c0-4.42 3.6-8 8-8h224c4.42 0 8 3.58 8 8v44c0 4.42-3.58 8-8 8h-224c-4.4 0-8-3.58-8-8z" fill="none"/><use xlink:href="#c" transform="matrix(1,0,0,1,618.1439318362948,861.422859690883) translate(60.99382716049384 21.511111111111106)"/><use xlink:href="#d" transform="matrix(1,0,0,1,618.1439318362948,861.422859690883) translate(150.62345679012344 21.511111111111106)"/><use xlink:href="#e" transform="matrix(1,0,0,1,618.1439318362948,861.422859690883) translate(76.7537037037037 53.777777777777764)"/><path d="M285.9 1088.02c0-4.42 3.58-8 8-8h224c4.42 0 8 3.58 8 8v44c0 4.42-3.58 8-8 8h-224c-4.42 0-8-3.58-8-8z" fill="none"/><use xlink:href="#f" transform="matrix(1,0,0,1,285.9010651389958,1080.0185790725327) translate(74.4092592592593 35.37777777777778)"/><use xlink:href="#g" transform="matrix(1,0,0,1,285.9010651389958,1080.0185790725327) translate(126.69320987654325 35.37777777777778)"/><path d="M795.95 134.62c0-4.4 3.58-8 8-8h224c4.42 0 8 3.6 8 8v44c0 4.42-3.58 8-8 8h-224c-4.42 0-8-3.58-8-8z" fill="none"/><use xlink:href="#h" transform="matrix(1,0,0,1,795.9531597329521,126.62455371190867) translate(46.130246913580265 35.37777777777778)"/><use xlink:href="#i" transform="matrix(1,0,0,1,795.9531597329521,126.62455371190867) translate(141.5858024691358 35.37777777777778)"/><path d="M159.52 214.65c0-4.42 3.6-8 8-8h224c4.42 0 8 3.58 8 8v44c0 4.42-3.58 8-8 8h-224c-4.4 0-8-3.58-8-8z" fill="none"/><use xlink:href="#j" transform="matrix(1,0,0,1,159.5245605035575,206.6499295148379) translate(0 35.37777777777778)"/><path d="M445 869.42c0-4.42 3.58-8 8-8h224c4.42 0 8 3.58 8 8v44c0 4.42-3.58 8-8 8H453c-4.42 0-8-3.58-8-8z" fill="none"/><use xlink:href="#c" transform="matrix(1,0,0,1,444.99737905095185,861.4228596908831) translate(60.99382716049384 21.511111111111106)"/><use xlink:href="#d" transform="matrix(1,0,0,1,444.99737905095185,861.4228596908831) translate(150.62345679012344 21.511111111111106)"/><use xlink:href="#k" transform="matrix(1,0,0,1,444.99737905095185,861.4228596908831) translate(69.28456790123458 53.777777777777764)"/><path d="M781.66 1088.02c0-4.42 3.58-8 8-8h224c4.42 0 8 3.58 8 8v44c0 4.42-3.58 8-8 8h-224c-4.42 0-8-3.58-8-8z" fill="none"/><use xlink:href="#l" transform="matrix(1,0,0,1,781.6582693174855,1080.0185790725327) translate(0 35.37777777777778)"/><use xlink:href="#g" transform="matrix(1,0,0,1,781.6582693174855,1080.0185790725327) translate(96.94938271604937 35.37777777777778)"/><path d="M533.78 72.73c0-4.42 3.58-8 8-8h224c4.42 0 8 3.58 8 8v44c0 4.4-3.58 8-8 8h-224c-4.42 0-8-3.6-8-8z" fill="none"/><use xlink:href="#m" transform="matrix(1,0,0,1,533.7796672282407,64.72607015479889) translate(31.97623456790126 35.37777777777778)"/><use xlink:href="#n" transform="matrix(1,0,0,1,533.7796672282407,64.72607015479889) translate(97.55524691358026 35.37777777777778)"/><path d="M378.14 687.35c0-4.42 3.6-8 8-8h224c4.42 0 8 3.58 8 8v44c0 4.42-3.58 8-8 8h-224c-4.4 0-8-3.58-8-8z" fill="none"/><use xlink:href="#o" transform="matrix(1,0,0,1,378.14393183629477,679.3503610134452) translate(78.91975308641976 35.37777777777778)"/><path d="M1334.66 250.83c0-4.42 3.6-8 8-8h224c4.42 0 8 3.58 8 8v44c0 4.42-3.58 8-8 8h-224c-4.4 0-8-3.58-8-8z" fill="none"/><use xlink:href="#p" transform="matrix(1,0,0,1,1334.6639972988557,242.8275865976891) translate(67.0064814814815 21.511111111111106)"/><use xlink:href="#q" transform="matrix(1,0,0,1,1334.6639972988557,242.8275865976891) translate(98.37685185185185 53.777777777777764)"/><path d="M533.78 124.73h80v40h-80zM613.78 124.73h80v40h-80zM693.78 124.73h80v40h-80z" fill="#fff"/><path d="M533.78 164.73h80v40h-80zM613.78 164.73h80v40h-80zM693.78 164.73h80v40h-80zM533.78 204.73h80v40h-80zM613.78 204.73h80v40h-80zM693.78 204.73h80v40h-80z" fill="#fff"/><path d="M533.78 124.73v40M613.78 124.73v40M693.78 124.73v40M773.78 124.73v40M533.78 164.73v40M613.78 164.73v40M693.78 164.73v40M773.78 164.73v40M533.78 204.73v40M613.78 204.73v40M693.78 204.73v40M773.78 204.73v40M533.78 124.73h80M613.78 124.73h80M693.78 124.73h80M533.78 164.73h80M613.78 164.73h80M693.78 164.73h80M533.78 204.73h80M533.78 244.73h80M613.78 204.73h80M613.78 244.73h80M693.78 204.73h80M693.78 244.73h80" stroke="#333" stroke-width="3" fill="none"/><path d="M653.78 475.5c-27.58 0-55.16 6.94-55.16 19.7v121.96c0 12.9 27.8 19.7 55.16 19.7 27.36 0 55.16-6.8 55.16-19.7V495.2c0-12.92-27.58-19.7-55.16-19.7zm0 6.94c29.12 0 48.32 7.75 48.32 12.75s-19.3 12.73-48.32 12.73c-28.9 0-48.2-7.74-48.2-12.74 0-5.17 19.08-12.76 48.2-12.76zm0 147.47c-29.12 0-48.2-7.74-48.2-12.74V586.5c9.92 6.46 29.23 9.7 48.2 9.7 19.08 0 38.4-3.4 48.32-9.7v30.66c0 5-19.2 12.75-48.32 12.75zm0-40.65c-29.12 0-48.2-7.58-48.2-12.74v-30.65c9.92 6.3 29.23 9.68 48.2 9.68 19.08 0 38.4-3.55 48.32-9.68v30.66c0 5.17-19.2 12.75-48.32 12.75zm0-40.66c-31.77 0-48.2-8.24-48.2-12.75V505.2c9.92 6.45 29.23 9.67 48.2 9.67 19.08 0 38.4-3.22 48.32-9.68v30.65c0 4.5-16.55 12.74-48.32 12.74z" stroke="#fff" stroke-opacity="0" fill="#3f8624"/><path d="M614.48 524.48h8.17v6.93h-8.17v-6.92zM614.48 565.15h8.17v6.92h-8.17v-6.92zM614.48 605.8h8.17v6.94h-8.17v-6.93zM626.6 524.48h14.42v6.93h-14.4v-6.92zM626.6 565.15h14.42v6.92h-14.4v-6.92zM626.6 605.8h14.42v6.94h-14.4v-6.93z" stroke="#fff" stroke-opacity="0" fill="#3f8624"/><path d="M578 556.18H288.9" stroke="#333" stroke-width="3" fill="none"/><path d="M593.77 556.18l-14.27 4.63v-9.26z" stroke="#333" stroke-width="3" fill="#333"/><path d="M288.94 557.68h-1.54v-3h1.54z" fill="#333"/><path d="M685 687.35c0-4.42 3.58-8 8-8h224c4.42 0 8 3.58 8 8v44c0 4.42-3.58 8-8 8H693c-4.42 0-8-3.58-8-8z" fill="none"/><use xlink:href="#o" transform="matrix(1,0,0,1,684.9973790509518,679.3503610134452) translate(78.91975308641976 35.37777777777778)"/><path d="M282.2 848.42V746.4c0-6.62 5.38-12 12-12H641.8c6.63 0 12-5.37 12-12v-64.93" stroke="#333" stroke-width="3" fill="none"/><path d="M283.7 849.92h-3v-1.54h3z" fill="#333"/><path d="M653.78 641.7l4.63 14.27h-9.26z" stroke="#333" stroke-width="3" fill="#333"/><path d="M1041 848.42V746.85c0-6.63-5.36-12-12-12H665.8c-6.63 0-12-5.38-12-12v-65.38" stroke="#333" stroke-width="3" fill="none"/><path d="M1042.5 849.92h-3v-1.54h3z" fill="#333"/><path d="M653.78 641.7l4.63 14.27h-9.26z" stroke="#333" stroke-width="3" fill="#333"/><path d="M653.78 1005.03l-33.75 5.34v77.67l33.75-5.34z" stroke="#000" stroke-opacity="0" fill="#27ae60"/><path d="M620.03 1101.56l-33.75 8.76v23.6l33.75 6.1z" stroke="#000" stroke-opacity="0" fill="#3498db"/><path d="M586.28 1005.03v87.76l33.75-8.77v-73.66z" stroke="#000" stroke-opacity="0" fill="#2ecc71"/><path d="M653.78 1089.38l-33.75 17.52v33.12l33.75-6.1z" stroke="#000" stroke-opacity="0" fill="#2980b9"/><path d="M653.78 1068.44l-33.75 15.6v22.86l33.88-13.5z" stroke="#000" stroke-opacity="0" fill="#f39c12"/><path d="M633.12 1008.44l17 62.08 3.66-1.34v-64.15z" stroke="#000" stroke-opacity="0" fill="#f39c12"/><path d="M654.32 1005.03l16.34 72.9h16.87v-67.56z" stroke="#000" stroke-opacity="0" fill="#2ecc71"/><path d="M653.78 1005.03v69.5l16.88-2.08-16.34-67.42z" stroke="#000" stroke-opacity="0" fill="#f1c40f"/><path d="M687.67 1065.02l-33.9 4.75v28.37l33.76-3.42z" stroke="#000" stroke-opacity="0" fill="#f1c40f"/><path d="M687.53 1010.37v55.4l33.75-9.5v-51.24z" stroke="#000" stroke-opacity="0" fill="#27ae60"/><path d="M721.28 1072.45l-33.75 16.33v51.24l33.75-6.1z" stroke="#000" stroke-opacity="0" fill="#2980b9"/><path d="M687.53 1088.78l-33.75 4.6v40.55l33.75 6.1z" stroke="#000" stroke-opacity="0" fill="#3498db"/><path d="M620.03 1084.03l-33.75 5.35v22.27l33.75-4.75z" stroke="#000" stroke-opacity="0" fill="#f1c40f"/><path d="M721.28 1049.58l-33.75 16.2v23l33.75-10.84z" stroke="#000" stroke-opacity="0" fill="#f39c12"/><path d="M629.48 1027.9c2.7-2.68 3.9-5.94 3.9-9.36 0-4-1.2-7.43-3.9-10.1-2.57-2.08-5.8-3.4-9.6-3.4-3.63 0-6.87 1.32-9.44 3.4-2.7 2.67-4.05 6.1-4.05 10.1 0 3.42 1.34 6.68 4.04 9.36 2.57 2.82 5.8 4.15 9.45 4.15 3.77 0 7-1.33 9.58-4.15m17.4-9.36c0 3.42-.53 6.68-1.6 9.36l-19.3 40.54c-.55 1.33-1.36 2.08-2.44 2.67-1.08.75-2.3 1.35-3.65 1.35-1.22 0-2.44-.6-3.52-1.34-1.08-.58-1.9-1.33-2.43-2.66l-19.3-40.54c-1.08-2.68-1.76-5.94-1.76-9.36 0-7.43 2.7-14.26 7.96-19.6 5.26-4.75 11.6-7.43 19.03-7.43 7.55 0 13.9 2.7 19.16 7.44 5.27 5.34 7.83 12.17 7.83 19.6" stroke="#000" stroke-opacity="0" fill="#c0392b"/><path d="M282.2 934.42v119.35c0 6.62 5.38 12 12 12h271.46" stroke="#333" stroke-width="3" fill="none"/><path d="M283.7 934.46h-3v-1.54h3z" fill="#333"/><path d="M581.42 1065.77l-14.26 4.63v-9.27z" stroke="#333" stroke-width="3" fill="#333"/><path d="M1041 934.42v119.35c0 6.62-5.36 12-12 12H741.9" stroke="#333" stroke-width="3" fill="none"/><path d="M1042.5 934.46h-3v-1.54h3z" fill="#333"/><path d="M726.14 1065.77l14.26-4.64v9.27z" stroke="#333" stroke-width="3" fill="#333"/><path d="M108.7 102.8c-13.23 0-26.44 3.33-26.44 9.43v58.44c0 6.18 13.32 9.43 26.43 9.43 13.1 0 26.4-3.25 26.4-9.43v-58.44c0-6.18-13.2-9.43-26.4-9.43zm0 3.33c13.94 0 23.14 3.7 23.14 6.1 0 2.4-9.25 6.1-23.15 6.1-13.86 0-23.1-3.7-23.1-6.1 0-2.47 9.13-6.1 23.1-6.1zm0 70.65c-13.97 0-23.1-3.7-23.1-6.1v-14.7c4.75 3.1 14 4.64 23.1 4.64 9.13 0 18.38-1.62 23.14-4.64v14.7c0 2.4-9.2 6.1-23.15 6.1zm0-19.48c-13.97 0-23.1-3.63-23.1-6.1v-14.7c4.75 3.02 14 4.64 23.1 4.64 9.13 0 18.38-1.7 23.14-4.64v14.7c0 2.47-9.2 6.1-23.15 6.1zm0-19.48c-15.23 0-23.1-3.94-23.1-6.1V117c4.75 3.1 14 4.64 23.1 4.64 9.13 0 18.38-1.54 23.14-4.63v14.68c0 2.18-7.93 6.12-23.15 6.12z" stroke="#fff" stroke-opacity="0" fill="#3f8624"/><path d="M89.86 126.27h3.9v3.32h-3.9v-3.33zM89.86 145.75h3.9v3.32h-3.9v-3.32zM89.86 165.23h3.9v3.32h-3.9v-3.32zM95.67 126.27h6.9v3.32h-6.9v-3.33zM95.67 145.75h6.9v3.32h-6.9v-3.32zM95.67 165.23h6.9v3.32h-6.9v-3.32z" stroke="#fff" stroke-opacity="0" fill="#3f8624"/><path d="M108.48 211.9l-13.1 2.08v30.16l13.1-2.07z" stroke="#000" stroke-opacity="0" fill="#27ae60"/><path d="M95.37 249.4l-13.1 3.4v9.17l13.1 2.36z" stroke="#000" stroke-opacity="0" fill="#3498db"/><path d="M82.26 211.9V246l13.1-3.4v-28.62z" stroke="#000" stroke-opacity="0" fill="#2ecc71"/><path d="M108.48 244.66l-13.1 6.8v12.87l13.1-2.36z" stroke="#000" stroke-opacity="0" fill="#2980b9"/><path d="M108.48 236.53l-13.1 6.06v8.87l13.15-5.25z" stroke="#000" stroke-opacity="0" fill="#f39c12"/><path d="M100.46 213.23l6.6 24.1 1.42-.5V211.9z" stroke="#000" stroke-opacity="0" fill="#f39c12"/><path d="M108.7 211.9l6.33 28.32h6.56v-26.24z" stroke="#000" stroke-opacity="0" fill="#2ecc71"/><path d="M108.48 211.9v27l6.55-.8-6.34-26.2z" stroke="#000" stroke-opacity="0" fill="#f1c40f"/><path d="M121.64 235.2l-13.16 1.85v11.02l13.1-1.33z" stroke="#000" stroke-opacity="0" fill="#f1c40f"/><path d="M121.6 213.98v21.5l13.1-3.68v-19.9z" stroke="#000" stroke-opacity="0" fill="#27ae60"/><path d="M134.7 238.1l-13.1 6.33v19.9l13.1-2.36z" stroke="#000" stroke-opacity="0" fill="#2980b9"/><path d="M121.6 244.43l-13.12 1.8v15.74l13.1 2.36z" stroke="#000" stroke-opacity="0" fill="#3498db"/><path d="M95.37 242.6l-13.1 2.06v8.65l13.1-1.83z" stroke="#000" stroke-opacity="0" fill="#f1c40f"/><path d="M134.7 229.2l-13.1 6.3v8.93l13.1-4.2z" stroke="#000" stroke-opacity="0" fill="#f39c12"/><path d="M99.04 220.78c1.05-1.04 1.52-2.3 1.52-3.63 0-1.56-.47-2.9-1.52-3.92-1-.8-2.25-1.33-3.72-1.33-1.42 0-2.68.52-3.67 1.33-1.05 1.03-1.58 2.36-1.58 3.92 0 1.32.53 2.6 1.58 3.63 1 1.1 2.25 1.62 3.67 1.62 1.47 0 2.72-.52 3.72-1.62m6.77-3.63c0 1.32-.2 2.6-.62 3.63l-7.5 15.75c-.2.52-.53.8-.95 1.04-.42.3-.9.52-1.4.52-.48 0-.96-.24-1.38-.53-.4-.23-.73-.52-.94-1.04l-7.5-15.75c-.4-1.04-.67-2.3-.67-3.63 0-2.9 1.05-5.54 3.1-7.62 2.04-1.84 4.5-2.88 7.4-2.88 2.92 0 5.4 1.04 7.43 2.88 2.05 2.08 3.05 4.73 3.05 7.62" stroke="#000" stroke-opacity="0" fill="#c0392b"/><path d="M653.78 1003.53V657.47" stroke="#333" stroke-width="3" fill="none"/><path d="M655.28 1005.18l-.96-.15h-.54l-1.5.23v-1.77h3z" fill="#333"/><path d="M653.78 641.7l4.63 14.27h-9.26z" stroke="#333" stroke-width="3" fill="#333"/><path d="M98.26 516.18c-8.84 0-16 7.16-16 16v48c0 8.83 7.16 16 16 16H269.9c8.84 0 16-7.17 16-16v-48c0-8.84-7.16-16-16-16z" stroke="#333" stroke-width="3" fill="#fff"/><use xlink:href="#r" transform="matrix(1,0,0,1,90.26096977725456,524.1759813657684) translate(9.822839506172855 37.37777777777778)"/><use xlink:href="#s" transform="matrix(1,0,0,1,90.26096977725456,524.1759813657684) translate(81.30246913580248 37.37777777777778)"/><path d="M202.28 851.42c-8.84 0-16 7.17-16 16v48c0 8.84 7.16 16 16 16h159.86c8.84 0 16-7.16 16-16v-48c0-8.83-7.16-16-16-16z" stroke="#333" stroke-width="3" fill="#fff"/><use xlink:href="#t" transform="matrix(1,0,0,1,194.2766945766175,859.422859690883) translate(14.242283950617292 37.37777777777778)"/><use xlink:href="#u" transform="matrix(1,0,0,1,194.2766945766175,859.422859690883) translate(96.1787037037037 37.37777777777778)"/><path d="M949.73 851.42c-8.83 0-16 7.17-16 16v48c0 8.84 7.17 16 16 16h182.56c8.82 0 16-7.16 16-16v-48c0-8.83-7.18-16-16-16z" stroke="#333" stroke-width="3" fill="#fff"/><use xlink:href="#v" transform="matrix(1,0,0,1,941.7339921792958,859.4228596908831) translate(10.76666666666668 37.37777777777778)"/><use xlink:href="#u" transform="matrix(1,0,0,1,941.7339921792958,859.4228596908831) translate(122.65432098765432 37.37777777777778)"/><path d="M1067.1 495.84c-13.32 0-24.12 10.8-24.12 24.13v72.4c0 13.34 10.8 24.14 24.13 24.14h206.1c13.33 0 24.14-10.8 24.14-24.12v-72.4c0-13.33-10.8-24.14-24.13-24.14z" stroke="#333" stroke-width="3" fill="#fff"/><use xlink:href="#w" transform="matrix(1,0,0,1,1050.9759759594235,503.840483879334) translate(31.51358024691359 41.74444444444445)"/><use xlink:href="#x" transform="matrix(1,0,0,1,1050.9759759594235,503.840483879334) translate(97.0925925925926 41.74444444444445)"/><use xlink:href="#y" transform="matrix(1,0,0,1,1050.9759759594235,503.840483879334) translate(62.137037037037054 74.0111111111111)"/><path d="M1039.98 556.18H729.56" stroke="#333" stroke-width="3" fill="none"/><path d="M1041.48 557.68h-1.54v-3h1.54z" fill="#333"/><path d="M713.8 556.18l14.26-4.64v9.27z" stroke="#333" stroke-width="3" fill="#333"/><path d="M745 507.35c0-4.42 3.58-8 8-8h224c4.42 0 8 3.58 8 8v44c0 4.42-3.58 8-8 8H753c-4.42 0-8-3.58-8-8z" fill="none"/><use xlink:href="#o" transform="matrix(1,0,0,1,744.9973790509518,499.3503610134453) translate(78.91975308641976 35.37777777777778)"/><path d="M653.78 474V266.85" stroke="#333" stroke-width="3" fill="none"/><path d="M655.28 475.53l-1.5-.03-1.5.07v-1.6h3z" fill="#333"/><path d="M653.78 251.08l4.63 14.27h-9.26z" stroke="#333" stroke-width="3" fill="#333"/><path d="M1096.52 126.62c-12.84 0-23.24 10.4-23.24 23.25v69.72c0 12.82 10.4 23.23 23.24 23.23h177.58c12.83 0 23.24-10.4 23.24-23.24v-69.73c0-12.84-10.4-23.25-23.24-23.25z" stroke="#333" stroke-width="3" fill="#fff"/><g><use xlink:href="#z" transform="matrix(1,0,0,1,1081.277328515904,134.62455371190867) translate(79.17962962962963 55.87777777777778)"/></g><path d="M776.78 184.73h274.38" stroke="#333" stroke-width="3" fill="none"/><path d="M776.82 186.23h-1.54v-3h1.54z" fill="#333"/><path d="M1066.92 184.73l-14.26 4.63v-9.27z" stroke="#333" stroke-width="3" fill="#333"/><path d="M1513.34 891.42c0 59.62-48.38 108-108 108s-108-48.38-108-108c0-59.6 48.38-108 108-108s108 48.4 108 108z" stroke="#000" stroke-opacity="0" stroke-width="4.55" fill="#25b7d3"/><path d="M1350.26 946.5V832.45c0-2.16-1.73-3.88-3.9-3.88-2.15 0-3.88 1.72-3.88 3.88v121.83h121.83c2.17 0 3.9-1.73 3.9-3.9 0-2.15-1.73-3.88-3.9-3.88h-114.04z" stroke="#000" stroke-opacity="0" stroke-width="4.55" fill="#f0f1f1"/><path d="M1362.14 914.97h23.54v31.53h-23.54v-31.53z" stroke="#000" stroke-opacity="0" stroke-width="4.55" fill="#72ee61"/><path d="M1397.56 893.37h23.55v53.13h-23.54v-53.13z" stroke="#000" stroke-opacity="0" stroke-width="4.55" fill="#ecf542"/><path d="M1432.77 850.17h23.55v96.33h-23.55v-96.33z" stroke="#000" stroke-opacity="0" stroke-width="4.55" fill="#ca5157"/><path d="M1300.34 184.73h241c6.63 0 12 5.37 12 12v682.7c0 6.62-5.37 12-12 12h-7.38" stroke="#333" stroke-width="3" fill="none"/><path d="M1300.38 186.23h-1.54v-3h1.54z" fill="#333"/><path d="M1518.2 891.42l14.26-4.63v9.26z" stroke="#333" stroke-width="3" fill="#333"/><defs><path fill="#333" d="M114-163C36-179 61-72 57 0H25l-1-190h30c1 12-1 29 2 39 6-27 23-49 58-41v29" id="A"/><path fill="#333" d="M108 0H70L1-190h34L89-25l56-165h34" id="B"/><path fill="#333" d="M194-70c0 46-34 64-81 66v29H91V-4C42-5 12-27 4-67l30-6c5 28 25 41 57 43v-87c-38-9-76-20-76-67 1-42 33-58 76-59v-23h22v23c45 0 67 20 76 56l-31 6c-5-23-18-35-45-37v78c41 10 81 20 81 70zm-81 41c51 7 71-66 19-77-6-2-12-4-19-6v83zM91-219c-47-6-63 57-18 69 6 2 12 3 18 5v-74" id="C"/><path fill="#333" d="M85-194c31 0 48 13 60 33l-1-100h32l1 261h-30c-2-10 0-23-3-31C134-8 116 4 85 4 32 4 16-35 15-94c0-66 23-100 70-100zm9 24c-40 0-46 34-46 75 0 40 6 74 45 74 42 0 51-32 51-76 0-42-9-74-50-73" id="D"/><path fill="#333" d="M59-47c-2 24 18 29 38 22v24C64 9 27 4 27-40v-127H5v-23h24l9-43h21v43h35v23H59v120" id="E"/><path fill="#333" d="M-5 72V49h209v23H-5" id="F"/><path fill="#333" d="M141-36C126-15 110 5 73 4 37 3 15-17 15-53c-1-64 63-63 125-63 3-35-9-54-41-54-24 1-41 7-42 31l-33-3c5-37 33-52 76-52 45 0 72 20 72 64v82c-1 20 7 32 28 27v20c-31 9-61-2-59-35zM48-53c0 20 12 33 32 33 41-3 63-29 60-74-43 2-92-5-92 41" id="G"/><g id="a"><use transform="matrix(0.07469135802469135,0,0,0.07469135802469135,0,0)" xlink:href="#A"/><use transform="matrix(0.07469135802469135,0,0,0.07469135802469135,8.88827160493827,0)" xlink:href="#B"/><use transform="matrix(0.07469135802469135,0,0,0.07469135802469135,22.33271604938271,0)" xlink:href="#C"/><use transform="matrix(0.07469135802469135,0,0,0.07469135802469135,37.270987654320976,0)" xlink:href="#D"/><use transform="matrix(0.07469135802469135,0,0,0.07469135802469135,52.20925925925924,0)" xlink:href="#E"/><use transform="matrix(0.07469135802469135,0,0,0.07469135802469135,59.678395061728374,0)" xlink:href="#F"/><use transform="matrix(0.07469135802469135,0,0,0.07469135802469135,74.61666666666665,0)" xlink:href="#D"/><use transform="matrix(0.07469135802469135,0,0,0.07469135802469135,89.55493827160491,0)" xlink:href="#G"/><use transform="matrix(0.07469135802469135,0,0,0.07469135802469135,104.49320987654318,0)" xlink:href="#E"/><use transform="matrix(0.07469135802469135,0,0,0.07469135802469135,111.96234567901232,0)" xlink:href="#G"/></g><path fill="#333" d="M115-194c55 1 70 41 70 98S169 2 115 4C84 4 66-9 55-30l1 105H24l-1-265h31l2 30c10-21 28-34 59-34zm-8 174c40 0 45-34 45-75s-6-73-45-74c-42 0-51 32-51 76 0 43 10 73 51 73" id="H"/><path fill="#333" d="M100-194c62-1 85 37 85 99 1 63-27 99-86 99S16-35 15-95c0-66 28-99 85-99zM99-20c44 1 53-31 53-75 0-43-8-75-51-75s-53 32-53 75 10 74 51 75" id="I"/><path fill="#333" d="M84 4C-5 8 30-112 23-190h32v120c0 31 7 50 39 49 72-2 45-101 50-169h31l1 190h-30c-1-10 1-25-2-33-11 22-28 36-60 37" id="J"/><path fill="#333" d="M24 0v-261h32V0H24" id="K"/><path fill="#333" d="M100-194c63 0 86 42 84 106H49c0 40 14 67 53 68 26 1 43-12 49-29l28 8c-11 28-37 45-77 45C44 4 14-33 15-96c1-61 26-98 85-98zm52 81c6-60-76-77-97-28-3 7-6 17-6 28h103" id="L"/><g id="b"><use transform="matrix(0.07469135802469135,0,0,0.07469135802469135,0,0)" xlink:href="#H"/><use transform="matrix(0.07469135802469135,0,0,0.07469135802469135,14.938271604938269,0)" xlink:href="#I"/><use transform="matrix(0.07469135802469135,0,0,0.07469135802469135,29.876543209876537,0)" xlink:href="#H"/><use transform="matrix(0.07469135802469135,0,0,0.07469135802469135,44.81481481481481,0)" xlink:href="#J"/><use transform="matrix(0.07469135802469135,0,0,0.07469135802469135,59.753086419753075,0)" xlink:href="#K"/><use transform="matrix(0.07469135802469135,0,0,0.07469135802469135,65.65370370370368,0)" xlink:href="#G"/><use transform="matrix(0.07469135802469135,0,0,0.07469135802469135,80.59197530864195,0)" xlink:href="#E"/><use transform="matrix(0.07469135802469135,0,0,0.07469135802469135,88.0611111111111,0)" xlink:href="#L"/></g><g id="c"><use transform="matrix(0.07469135802469135,0,0,0.07469135802469135,0,0)" xlink:href="#J"/><use transform="matrix(0.07469135802469135,0,0,0.07469135802469135,14.938271604938269,0)" xlink:href="#H"/><use transform="matrix(0.07469135802469135,0,0,0.07469135802469135,29.876543209876537,0)" xlink:href="#D"/><use transform="matrix(0.07469135802469135,0,0,0.07469135802469135,44.81481481481481,0)" xlink:href="#G"/><use transform="matrix(0.07469135802469135,0,0,0.07469135802469135,59.753086419753075,0)" xlink:href="#E"/><use transform="matrix(0.07469135802469135,0,0,0.07469135802469135,67.22222222222221,0)" xlink:href="#L"/></g><path fill="#333" d="M115-194c53 0 69 39 70 98 0 66-23 100-70 100C84 3 66-7 56-30L54 0H23l1-261h32v101c10-23 28-34 59-34zm-8 174c40 0 45-34 45-75 0-40-5-75-45-74-42 0-51 32-51 76 0 43 10 73 51 73" id="M"/><path fill="#333" d="M179-190L93 31C79 59 56 82 12 73V49c39 6 53-20 64-50L1-190h34L92-34l54-156h33" id="N"/><g id="d"><use transform="matrix(0.07469135802469135,0,0,0.07469135802469135,0,0)" xlink:href="#M"/><use transform="matrix(0.07469135802469135,0,0,0.07469135802469135,14.938271604938269,0)" xlink:href="#N"/></g><path fill="#333" d="M210-169c-67 3-38 105-44 169h-31v-121c0-29-5-50-35-48C34-165 62-65 56 0H25l-1-190h30c1 10-1 24 2 32 10-44 99-50 107 0 11-21 27-35 58-36 85-2 47 119 55 194h-31v-121c0-29-5-49-35-48" id="O"/><path fill="#333" d="M24-231v-30h32v30H24zM24 0v-190h32V0H24" id="P"/><path fill="#333" d="M117-194c89-4 53 116 60 194h-32v-121c0-31-8-49-39-48C34-167 62-67 57 0H25l-1-190h30c1 10-1 24 2 32 11-22 29-35 61-36" id="Q"/><path fill="#333" d="M177-190C167-65 218 103 67 71c-23-6-38-20-44-43l32-5c15 47 100 32 89-28v-30C133-14 115 1 83 1 29 1 15-40 15-95c0-56 16-97 71-98 29-1 48 16 59 35 1-10 0-23 2-32h30zM94-22c36 0 50-32 50-73 0-42-14-75-50-75-39 0-46 34-46 75s6 73 46 73" id="R"/><g id="e"><use transform="matrix(0.07469135802469135,0,0,0.07469135802469135,0,0)" xlink:href="#O"/><use transform="matrix(0.07469135802469135,0,0,0.07469135802469135,22.33271604938271,0)" xlink:href="#I"/><use transform="matrix(0.07469135802469135,0,0,0.07469135802469135,37.270987654320976,0)" xlink:href="#B"/><use transform="matrix(0.07469135802469135,0,0,0.07469135802469135,50.71543209876541,0)" xlink:href="#P"/><use transform="matrix(0.07469135802469135,0,0,0.07469135802469135,56.61604938271603,0)" xlink:href="#Q"/><use transform="matrix(0.07469135802469135,0,0,0.07469135802469135,71.55432098765431,0)" xlink:href="#R"/></g><g id="f"><use transform="matrix(0.07469135802469135,0,0,0.07469135802469135,0,0)" xlink:href="#G"/><use transform="matrix(0.07469135802469135,0,0,0.07469135802469135,14.938271604938269,0)" xlink:href="#D"/><use transform="matrix(0.07469135802469135,0,0,0.07469135802469135,29.876543209876537,0)" xlink:href="#D"/></g><path fill="#333" d="M106-169C34-169 62-67 57 0H25v-261h32l-1 103c12-21 28-36 61-36 89 0 53 116 60 194h-32v-121c2-32-8-49-39-48" id="S"/><path fill="#333" d="M135-143c-3-34-86-38-87 0 15 53 115 12 119 90S17 21 10-45l28-5c4 36 97 45 98 0-10-56-113-15-118-90-4-57 82-63 122-42 12 7 21 19 24 35" id="T"/><g id="g"><use transform="matrix(0.07469135802469135,0,0,0.07469135802469135,0,0)" xlink:href="#S"/><use transform="matrix(0.07469135802469135,0,0,0.07469135802469135,14.938271604938269,0)" xlink:href="#P"/><use transform="matrix(0.07469135802469135,0,0,0.07469135802469135,20.838888888888885,0)" xlink:href="#R"/><use transform="matrix(0.07469135802469135,0,0,0.07469135802469135,35.777160493827154,0)" xlink:href="#S"/><use transform="matrix(0.07469135802469135,0,0,0.07469135802469135,50.71543209876541,0)" xlink:href="#K"/><use transform="matrix(0.07469135802469135,0,0,0.07469135802469135,56.61604938271603,0)" xlink:href="#P"/><use transform="matrix(0.07469135802469135,0,0,0.07469135802469135,62.516666666666644,0)" xlink:href="#R"/><use transform="matrix(0.07469135802469135,0,0,0.07469135802469135,77.4549382716049,0)" xlink:href="#S"/><use transform="matrix(0.07469135802469135,0,0,0.07469135802469135,92.39320987654318,0)" xlink:href="#E"/><use transform="matrix(0.07469135802469135,0,0,0.07469135802469135,99.86234567901234,0)" xlink:href="#T"/></g><g id="h"><use transform="matrix(0.07469135802469135,0,0,0.07469135802469135,0,0)" xlink:href="#H"/><use transform="matrix(0.07469135802469135,0,0,0.07469135802469135,14.938271604938269,0)" xlink:href="#A"/><use transform="matrix(0.07469135802469135,0,0,0.07469135802469135,23.82654320987654,0)" xlink:href="#I"/><use transform="matrix(0.07469135802469135,0,0,0.07469135802469135,38.764814814814805,0)" xlink:href="#B"/><use transform="matrix(0.07469135802469135,0,0,0.07469135802469135,52.20925925925926,0)" xlink:href="#P"/><use transform="matrix(0.07469135802469135,0,0,0.07469135802469135,58.10987654320988,0)" xlink:href="#D"/><use transform="matrix(0.07469135802469135,0,0,0.07469135802469135,73.04814814814814,0)" xlink:href="#L"/></g><g id="i"><use transform="matrix(0.07469135802469135,0,0,0.07469135802469135,0,0)" xlink:href="#D"/><use transform="matrix(0.07469135802469135,0,0,0.07469135802469135,14.938271604938269,0)" xlink:href="#G"/><use transform="matrix(0.07469135802469135,0,0,0.07469135802469135,29.876543209876537,0)" xlink:href="#E"/><use transform="matrix(0.07469135802469135,0,0,0.07469135802469135,37.34567901234567,0)" xlink:href="#G"/></g><g id="j"><use transform="matrix(0.07469135802469135,0,0,0.07469135802469135,0,0)" xlink:href="#R"/><use transform="matrix(0.07469135802469135,0,0,0.07469135802469135,14.938271604938269,0)" xlink:href="#L"/><use transform="matrix(0.07469135802469135,0,0,0.07469135802469135,29.876543209876537,0)" xlink:href="#I"/><use transform="matrix(0.07469135802469135,0,0,0.07469135802469135,44.81481481481481,0)" xlink:href="#F"/><use transform="matrix(0.07469135802469135,0,0,0.07469135802469135,59.753086419753075,0)" xlink:href="#O"/><use transform="matrix(0.07469135802469135,0,0,0.07469135802469135,82.08580246913579,0)" xlink:href="#G"/><use transform="matrix(0.07469135802469135,0,0,0.07469135802469135,97.02407407407406,0)" xlink:href="#H"/></g><path fill="#333" d="M9 0v-24l116-142H16v-24h144v24L44-24h123V0H9" id="U"/><g id="k"><use transform="matrix(0.07469135802469135,0,0,0.07469135802469135,0,0)" xlink:href="#U"/><use transform="matrix(0.07469135802469135,0,0,0.07469135802469135,13.444444444444443,0)" xlink:href="#I"/><use transform="matrix(0.07469135802469135,0,0,0.07469135802469135,28.38271604938271,0)" xlink:href="#I"/><use transform="matrix(0.07469135802469135,0,0,0.07469135802469135,43.32098765432098,0)" xlink:href="#O"/><use transform="matrix(0.07469135802469135,0,0,0.07469135802469135,65.65370370370368,0)" xlink:href="#P"/><use transform="matrix(0.07469135802469135,0,0,0.07469135802469135,71.55432098765431,0)" xlink:href="#Q"/><use transform="matrix(0.07469135802469135,0,0,0.07469135802469135,86.49259259259257,0)" xlink:href="#R"/></g><g id="l"><use transform="matrix(0.07469135802469135,0,0,0.07469135802469135,0,0)" xlink:href="#A"/><use transform="matrix(0.07469135802469135,0,0,0.07469135802469135,8.88827160493827,0)" xlink:href="#L"/><use transform="matrix(0.07469135802469135,0,0,0.07469135802469135,23.82654320987654,0)" xlink:href="#O"/><use transform="matrix(0.07469135802469135,0,0,0.07469135802469135,46.15925925925925,0)" xlink:href="#I"/><use transform="matrix(0.07469135802469135,0,0,0.07469135802469135,61.09753086419752,0)" xlink:href="#B"/><use transform="matrix(0.07469135802469135,0,0,0.07469135802469135,74.54197530864197,0)" xlink:href="#L"/></g><g id="m"><use transform="matrix(0.07469135802469135,0,0,0.07469135802469135,0,0)" xlink:href="#O"/><use transform="matrix(0.07469135802469135,0,0,0.07469135802469135,22.33271604938271,0)" xlink:href="#G"/><use transform="matrix(0.07469135802469135,0,0,0.07469135802469135,37.270987654320976,0)" xlink:href="#P"/><use transform="matrix(0.07469135802469135,0,0,0.07469135802469135,43.17160493827159,0)" xlink:href="#Q"/></g><g id="n"><use transform="matrix(0.07469135802469135,0,0,0.07469135802469135,0,0)" xlink:href="#D"/><use transform="matrix(0.07469135802469135,0,0,0.07469135802469135,14.938271604938269,0)" xlink:href="#G"/><use transform="matrix(0.07469135802469135,0,0,0.07469135802469135,29.876543209876537,0)" xlink:href="#E"/><use transform="matrix(0.07469135802469135,0,0,0.07469135802469135,37.34567901234567,0)" xlink:href="#G"/><use transform="matrix(0.07469135802469135,0,0,0.07469135802469135,52.283950617283935,0)" xlink:href="#E"/><use transform="matrix(0.07469135802469135,0,0,0.07469135802469135,59.75308641975307,0)" xlink:href="#G"/><use transform="matrix(0.07469135802469135,0,0,0.07469135802469135,74.69135802469134,0)" xlink:href="#M"/><use transform="matrix(0.07469135802469135,0,0,0.07469135802469135,89.62962962962959,0)" xlink:href="#K"/><use transform="matrix(0.07469135802469135,0,0,0.07469135802469135,95.53024691358021,0)" xlink:href="#L"/></g><g id="o"><use transform="matrix(0.07469135802469135,0,0,0.07469135802469135,0,0)" xlink:href="#J"/><use transform="matrix(0.07469135802469135,0,0,0.07469135802469135,14.938271604938269,0)" xlink:href="#H"/><use transform="matrix(0.07469135802469135,0,0,0.07469135802469135,29.876543209876537,0)" xlink:href="#D"/><use transform="matrix(0.07469135802469135,0,0,0.07469135802469135,44.81481481481481,0)" xlink:href="#G"/><use transform="matrix(0.07469135802469135,0,0,0.07469135802469135,59.753086419753075,0)" xlink:href="#E"/><use transform="matrix(0.07469135802469135,0,0,0.07469135802469135,67.22222222222221,0)" xlink:href="#L"/></g><g id="p"><use transform="matrix(0.07469135802469135,0,0,0.07469135802469135,0,0)" xlink:href="#R"/><use transform="matrix(0.07469135802469135,0,0,0.07469135802469135,14.938271604938269,0)" xlink:href="#L"/><use transform="matrix(0.07469135802469135,0,0,0.07469135802469135,29.876543209876537,0)" xlink:href="#Q"/><use transform="matrix(0.07469135802469135,0,0,0.07469135802469135,44.81481481481481,0)" xlink:href="#L"/><use transform="matrix(0.07469135802469135,0,0,0.07469135802469135,59.753086419753075,0)" xlink:href="#A"/><use transform="matrix(0.07469135802469135,0,0,0.07469135802469135,68.64135802469134,0)" xlink:href="#G"/><use transform="matrix(0.07469135802469135,0,0,0.07469135802469135,83.57962962962962,0)" xlink:href="#E"/><use transform="matrix(0.07469135802469135,0,0,0.07469135802469135,91.04876543209875,0)" xlink:href="#L"/></g><g id="q"><use transform="matrix(0.07469135802469135,0,0,0.07469135802469135,0,0)" xlink:href="#H"/><use transform="matrix(0.07469135802469135,0,0,0.07469135802469135,14.938271604938269,0)" xlink:href="#K"/><use transform="matrix(0.07469135802469135,0,0,0.07469135802469135,20.838888888888885,0)" xlink:href="#I"/><use transform="matrix(0.07469135802469135,0,0,0.07469135802469135,35.777160493827154,0)" xlink:href="#E"/></g><path fill="#333" d="M24 0v-248h52v208h133V0H24" id="V"/><path fill="#333" d="M110-194c64 0 96 36 96 99 0 64-35 99-97 99-61 0-95-36-95-99 0-62 34-99 96-99zm-1 164c35 0 45-28 45-65 0-40-10-65-43-65-34 0-45 26-45 65 0 36 10 65 43 65" id="W"/><path fill="#333" d="M133-34C117-15 103 5 69 4 32 3 11-16 11-54c-1-60 55-63 116-61 1-26-3-47-28-47-18 1-26 9-28 27l-52-2c7-38 36-58 82-57s74 22 75 68l1 82c-1 14 12 18 25 15v27c-30 8-71 5-69-32zm-48 3c29 0 43-24 42-57-32 0-66-3-65 30 0 17 8 27 23 27" id="X"/><path fill="#333" d="M88-194c31-1 46 15 58 34l-1-101h50l1 261h-48c-2-10 0-23-3-31C134-8 116 4 84 4 32 4 16-41 15-95c0-56 19-97 73-99zm17 164c33 0 40-30 41-66 1-37-9-64-41-64s-38 30-39 65c0 43 13 65 39 65" id="Y"/><g id="r"><use transform="matrix(0.07469135802469135,0,0,0.07469135802469135,0,0)" xlink:href="#V"/><use transform="matrix(0.07469135802469135,0,0,0.07469135802469135,16.357407407407404,0)" xlink:href="#W"/><use transform="matrix(0.07469135802469135,0,0,0.07469135802469135,32.71481481481481,0)" xlink:href="#X"/><use transform="matrix(0.07469135802469135,0,0,0.07469135802469135,47.65308641975308,0)" xlink:href="#Y"/></g><path fill="#333" d="M24-248c120-7 223 5 221 122C244-46 201 0 124 0H24v-248zM76-40c74 7 117-18 117-86 0-67-45-88-117-82v168" id="Z"/><path fill="#333" d="M115-3C79 11 28 4 28-45v-112H4v-33h27l15-45h31v45h36v33H77v99c-1 23 16 31 38 25v30" id="aa"/><path fill="#333" d="M137-138c1-29-70-34-71-4 15 46 118 7 119 86 1 83-164 76-172 9l43-7c4 19 20 25 44 25 33 8 57-30 24-41C81-84 22-81 20-136c-2-80 154-74 161-7" id="ab"/><path fill="#333" d="M185-48c-13 30-37 53-82 52C43 2 14-33 14-96s30-98 90-98c62 0 83 45 84 108H66c0 31 8 55 39 56 18 0 30-7 34-22zm-45-69c5-46-57-63-70-21-2 6-4 13-4 21h74" id="ac"/><g id="s"><use transform="matrix(0.07469135802469135,0,0,0.07469135802469135,0,0)" xlink:href="#Z"/><use transform="matrix(0.07469135802469135,0,0,0.07469135802469135,19.34506172839506,0)" xlink:href="#X"/><use transform="matrix(0.07469135802469135,0,0,0.07469135802469135,34.28333333333333,0)" xlink:href="#aa"/><use transform="matrix(0.07469135802469135,0,0,0.07469135802469135,43.1716049382716,0)" xlink:href="#X"/><use transform="matrix(0.07469135802469135,0,0,0.07469135802469135,58.109876543209865,0)" xlink:href="#ab"/><use transform="matrix(0.07469135802469135,0,0,0.07469135802469135,73.04814814814813,0)" xlink:href="#ac"/><use transform="matrix(0.07469135802469135,0,0,0.07469135802469135,87.9864197530864,0)" xlink:href="#aa"/></g><path fill="#333" d="M199 0l-22-63H83L61 0H9l90-248h61L250 0h-51zm-33-102l-36-108c-10 38-24 72-36 108h72" id="ad"/><path fill="#333" d="M135-194c53 0 70 44 70 98 0 56-19 98-73 100-31 1-45-17-59-34 3 33 2 69 2 105H25l-1-265h48c2 10 0 23 3 31 11-24 29-35 60-35zM114-30c33 0 39-31 40-66 0-38-9-64-40-64-56 0-55 130 0 130" id="ae"/><path fill="#333" d="M25 0v-261h50V0H25" id="af"/><path fill="#333" d="M123 10C108 53 80 86 19 72V37c35 8 53-11 59-39L3-190h52l48 148c12-52 28-100 44-148h51" id="ag"/><g id="t"><use transform="matrix(0.07469135802469135,0,0,0.07469135802469135,0,0)" xlink:href="#ad"/><use transform="matrix(0.07469135802469135,0,0,0.07469135802469135,19.34506172839506,0)" xlink:href="#ae"/><use transform="matrix(0.07469135802469135,0,0,0.07469135802469135,35.70246913580246,0)" xlink:href="#ae"/><use transform="matrix(0.07469135802469135,0,0,0.07469135802469135,52.05987654320987,0)" xlink:href="#af"/><use transform="matrix(0.07469135802469135,0,0,0.07469135802469135,59.529012345679,0)" xlink:href="#ag"/></g><path fill="#333" d="M76-208v77h127v40H76V0H24v-248h183v40H76" id="ah"/><path fill="#333" d="M25-224v-37h50v37H25zM25 0v-190h50V0H25" id="ai"/><path fill="#333" d="M135-150c-39-12-60 13-60 57V0H25l-1-190h47c2 13-1 29 3 40 6-28 27-53 61-41v41" id="aj"/><g id="u"><use transform="matrix(0.07469135802469135,0,0,0.07469135802469135,0,0)" xlink:href="#ah"/><use transform="matrix(0.07469135802469135,0,0,0.07469135802469135,16.357407407407404,0)" xlink:href="#ai"/><use transform="matrix(0.07469135802469135,0,0,0.07469135802469135,23.82654320987654,0)" xlink:href="#af"/><use transform="matrix(0.07469135802469135,0,0,0.07469135802469135,31.295679012345673,0)" xlink:href="#aa"/><use transform="matrix(0.07469135802469135,0,0,0.07469135802469135,40.18395061728394,0)" xlink:href="#ac"/><use transform="matrix(0.07469135802469135,0,0,0.07469135802469135,55.122222222222206,0)" xlink:href="#aj"/></g><path fill="#333" d="M240-174c0 40-23 61-54 70L253 0h-59l-57-94H76V0H24v-248c93 4 217-23 216 74zM76-134c48-2 112 12 112-38 0-48-66-32-112-35v73" id="ak"/><path fill="#333" d="M220-157c-53 9-28 100-34 157h-49v-107c1-27-5-49-29-50C55-147 81-57 75 0H25l-1-190h47c2 12-1 28 3 38 10-53 101-56 108 0 13-22 24-43 59-42 82 1 51 116 57 194h-49v-107c-1-25-5-48-29-50" id="al"/><path fill="#333" d="M128 0H69L1-190h53L99-40l48-150h52" id="am"/><g id="v"><use transform="matrix(0.07469135802469135,0,0,0.07469135802469135,0,0)" xlink:href="#ak"/><use transform="matrix(0.07469135802469135,0,0,0.07469135802469135,19.34506172839506,0)" xlink:href="#ac"/><use transform="matrix(0.07469135802469135,0,0,0.07469135802469135,34.28333333333333,0)" xlink:href="#al"/><use transform="matrix(0.07469135802469135,0,0,0.07469135802469135,58.18456790123456,0)" xlink:href="#W"/><use transform="matrix(0.07469135802469135,0,0,0.07469135802469135,74.54197530864197,0)" xlink:href="#am"/><use transform="matrix(0.07469135802469135,0,0,0.07469135802469135,89.48024691358023,0)" xlink:href="#ac"/></g><path fill="#333" d="M186 0v-106H76V0H24v-248h52v99h110v-99h50V0h-50" id="an"/><g id="w"><use transform="matrix(0.07469135802469135,0,0,0.07469135802469135,0,0)" xlink:href="#an"/><use transform="matrix(0.07469135802469135,0,0,0.07469135802469135,19.34506172839506,0)" xlink:href="#ai"/><use transform="matrix(0.07469135802469135,0,0,0.07469135802469135,26.81419753086419,0)" xlink:href="#Y"/><use transform="matrix(0.07469135802469135,0,0,0.07469135802469135,43.1716049382716,0)" xlink:href="#ac"/></g><path fill="#333" d="M169-182c-1-43-94-46-97-3 18 66 151 10 154 114 3 95-165 93-204 36-6-8-10-19-12-30l50-8c3 46 112 56 116 5-17-69-150-10-154-114-4-87 153-88 188-35 5 8 8 18 10 28" id="ao"/><path fill="#333" d="M190-63c-7 42-38 67-86 67-59 0-84-38-90-98-12-110 154-137 174-36l-49 2c-2-19-15-32-35-32-30 0-35 28-38 64-6 74 65 87 74 30" id="ap"/><g id="x"><use transform="matrix(0.07469135802469135,0,0,0.07469135802469135,0,0)" xlink:href="#ao"/><use transform="matrix(0.07469135802469135,0,0,0.07469135802469135,17.925925925925924,0)" xlink:href="#ac"/><use transform="matrix(0.07469135802469135,0,0,0.07469135802469135,32.86419753086419,0)" xlink:href="#af"/><use transform="matrix(0.07469135802469135,0,0,0.07469135802469135,40.33333333333332,0)" xlink:href="#ac"/><use transform="matrix(0.07469135802469135,0,0,0.07469135802469135,55.271604938271594,0)" xlink:href="#ap"/><use transform="matrix(0.07469135802469135,0,0,0.07469135802469135,70.20987654320986,0)" xlink:href="#aa"/><use transform="matrix(0.07469135802469135,0,0,0.07469135802469135,79.09814814814814,0)" xlink:href="#ac"/><use transform="matrix(0.07469135802469135,0,0,0.07469135802469135,94.03641975308639,0)" xlink:href="#Y"/></g><path fill="#333" d="M67-125c0 53 21 87 73 88 37 1 54-22 65-47l45 17C233-25 199 4 140 4 58 4 20-42 15-125 8-235 124-281 211-232c18 10 29 29 36 50l-46 12c-8-25-30-41-62-41-52 0-71 34-72 86" id="aq"/><path fill="#333" d="M85 4C-2 5 27-109 22-190h50c7 57-23 150 33 157 60-5 35-97 40-157h50l1 190h-47c-2-12 1-28-3-38-12 25-28 42-61 42" id="ar"/><path fill="#333" d="M135-194c87-1 58 113 63 194h-50c-7-57 23-157-34-157-59 0-34 97-39 157H25l-1-190h47c2 12-1 28 3 38 12-26 28-41 61-42" id="as"/><g id="y"><use transform="matrix(0.07469135802469135,0,0,0.07469135802469135,0,0)" xlink:href="#aq"/><use transform="matrix(0.07469135802469135,0,0,0.07469135802469135,19.34506172839506,0)" xlink:href="#W"/><use transform="matrix(0.07469135802469135,0,0,0.07469135802469135,35.70246913580246,0)" xlink:href="#af"/><use transform="matrix(0.07469135802469135,0,0,0.07469135802469135,43.17160493827159,0)" xlink:href="#ar"/><use transform="matrix(0.07469135802469135,0,0,0.07469135802469135,59.52901234567899,0)" xlink:href="#al"/><use transform="matrix(0.07469135802469135,0,0,0.07469135802469135,83.43024691358022,0)" xlink:href="#as"/><use transform="matrix(0.07469135802469135,0,0,0.07469135802469135,99.78765432098763,0)" xlink:href="#ab"/></g><path fill="#333" d="M24-248c93 1 206-16 204 79-1 75-69 88-152 82V0H24v-248zm52 121c47 0 100 7 100-41 0-47-54-39-100-39v80" id="at"/><g id="z"><use transform="matrix(0.07469135802469135,0,0,0.07469135802469135,0,0)" xlink:href="#at"/><use transform="matrix(0.07469135802469135,0,0,0.07469135802469135,17.925925925925924,0)" xlink:href="#af"/><use transform="matrix(0.07469135802469135,0,0,0.07469135802469135,25.395061728395056,0)" xlink:href="#W"/><use transform="matrix(0.07469135802469135,0,0,0.07469135802469135,41.75246913580246,0)" xlink:href="#aa"/></g></defs></g></svg>