<svg xmlns="http://www.w3.org/2000/svg" xmlns:xlink="http://www.w3.org/1999/xlink" xmlns:lucid="lucid" width="1926.71" height="1459.62"><g transform="translate(0 0)" lucid:page-tab-id="0_0"><path d="M1157.22 752.06c0-4.42 3.58-8 8-8h224c4.42 0 8 3.58 8 8v44c0 4.4-3.58 8-8 8h-224c-4.42 0-8-3.6-8-8z" fill="none"/><use xlink:href="#a" transform="matrix(1,0,0,1,1157.2222018111413,744.0555710634906) translate(4.865123456790172 37.15555555555555)"/><use xlink:href="#b" transform="matrix(1,0,0,1,1157.2222018111413,744.0555710634906) translate(137.7398148148148 37.15555555555555)"/><path d="M1652.62 1240.37c0-4.42 3.58-8 8-8h258.1c4.4 0 8 3.58 8 8v52.52c0 4.4-3.6 8-8 8h-258.1c-4.42 0-8-3.6-8-8z" fill="none"/><use xlink:href="#c" transform="matrix(1,0,0,1,1652.6164317515038,1232.3708914401122) translate(0 39.87777777777778)"/><use xlink:href="#d" transform="matrix(1,0,0,1,1652.6164317515038,1232.3708914401122) translate(101.43086419753085 39.87777777777778)"/><path d="M814.22 1130.47c0-4.42 3.58-8 8-8h224c4.4 0 8 3.58 8 8v44c0 4.42-3.6 8-8 8h-224c-4.42 0-8-3.58-8-8z" fill="none"/><use xlink:href="#e" transform="matrix(1,0,0,1,814.2151807142066,1122.4708336114015) translate(41.4876543209877 28.622222222222213)"/><use xlink:href="#f" transform="matrix(1,0,0,1,814.2151807142066,1122.4708336114015) translate(160.74691358024688 28.622222222222213)"/><use xlink:href="#g" transform="matrix(1,0,0,1,814.2151807142066,1122.4708336114015) translate(62.45740740740744 71.55555555555554)"/><path d="M461.97 1359.07c0-4.42 3.58-8 8-8h224c4.42 0 8 3.58 8 8v44c0 4.4-3.58 8-8 8h-224c-4.42 0-8-3.6-8-8z" fill="none"/><use xlink:href="#h" transform="matrix(1,0,0,1,461.9723140169076,1351.0665529930513) translate(19.668518518518624 37.15555555555555)"/><use xlink:href="#i" transform="matrix(1,0,0,1,461.9723140169076,1351.0665529930513) translate(89.2364197530865 37.15555555555555)"/><path d="M477.1 533.52c0-4.4 3.58-8 8-8h224c4.42 0 8 3.6 8 8v44c0 4.42-3.58 8-8 8h-224c-4.42 0-8-3.58-8-8z" fill="none"/><use xlink:href="#j" transform="matrix(1,0,0,1,477.0968453602182,525.523730329159) translate(56.64351851851855 37.15555555555555)"/><path d="M1652.62 1339.2c0-4.4 3.58-8 8-8h258.1c4.4 0 8 3.6 8 8v52.54c0 4.42-3.6 8-8 8h-258.1c-4.42 0-8-3.58-8-8z" fill="none"/><use xlink:href="#k" transform="matrix(1,0,0,1,1652.6164317515038,1331.2141097678427) translate(0 39.87777777777778)"/><use xlink:href="#l" transform="matrix(1,0,0,1,1652.6164317515038,1331.2141097678427) translate(129.73888888888888 39.87777777777778)"/><path d="M621.07 1130.47c0-4.42 3.58-8 8-8h224c4.42 0 8 3.58 8 8v44c0 4.42-3.58 8-8 8h-224c-4.42 0-8-3.58-8-8z" fill="none"/><use xlink:href="#e" transform="matrix(1,0,0,1,621.0686279288636,1122.4708336114015) translate(41.4876543209877 28.622222222222213)"/><use xlink:href="#f" transform="matrix(1,0,0,1,621.0686279288636,1122.4708336114015) translate(160.74691358024688 28.622222222222213)"/><use xlink:href="#m" transform="matrix(1,0,0,1,621.0686279288636,1122.4708336114015) translate(52.519135802469165 71.55555555555554)"/><path d="M957.73 1359.07c0-4.42 3.58-8 8-8h275.62c4.42 0 8 3.58 8 8v44c0 4.4-3.58 8-8 8H965.73c-4.42 0-8-3.6-8-8z" fill="none"/><use xlink:href="#n" transform="matrix(1,0,0,1,957.7295181953973,1351.0665529930513) translate(0 37.15555555555555)"/><use xlink:href="#i" transform="matrix(1,0,0,1,957.7295181953973,1351.0665529930513) translate(128.9987654320987 37.15555555555555)"/><path d="M350.06 104.3c0-4.4 3.58-8 8-8h224c4.42 0 8 3.6 8 8v44c0 4.43-3.58 8-8 8h-224c-4.42 0-8-3.57-8-8z" fill="none"/><use xlink:href="#o" transform="matrix(1,0,0,1,350.0609773925634,96.30780016465013) translate(2.877469135802528 37.15555555555555)"/><use xlink:href="#p" transform="matrix(1,0,0,1,350.0609773925634,96.30780016465013) translate(90.1354938271605 37.15555555555555)"/><path d="M282.67 752.06c0-4.42 3.58-8 8-8h224c4.42 0 8 3.58 8 8v44c0 4.4-3.58 8-8 8h-224c-4.42 0-8-3.6-8-8z" fill="none"/><use xlink:href="#q" transform="matrix(1,0,0,1,282.66788102143045,744.0555710634906) translate(13.908950617284006 37.15555555555555)"/><use xlink:href="#r" transform="matrix(1,0,0,1,282.66788102143045,744.0555710634906) translate(102.95586419753087 37.15555555555555)"/><path d="M554.22 958.4c0-4.42 3.58-8 8-8h224c4.4 0 8 3.58 8 8v44c0 4.42-3.6 8-8 8h-224c-4.42 0-8-3.58-8-8z" fill="none"/><use xlink:href="#s" transform="matrix(1,0,0,1,554.2151807142066,950.3983349339635) translate(65.33950617283953 37.15555555555555)"/><path d="M1279.62 129.78c0-4.42 3.58-8 8-8h224c4.42 0 8 3.58 8 8v44c0 4.42-3.58 8-8 8h-224c-4.42 0-8-3.58-8-8z" fill="none"/><use xlink:href="#t" transform="matrix(1,0,0,1,1279.6190893635578,121.77793073315377) translate(49.487962962962996 28.622222222222213)"/><use xlink:href="#u" transform="matrix(1,0,0,1,1279.6190893635578,121.77793073315377) translate(91.22870370370372 71.55555555555554)"/><path d="M350.06 156.3h80v40h-80zM430.06 156.3h80v40h-80z" fill="#fff"/><path d="M510.06 156.3h80v40h-80zM350.06 196.3h80v40h-80zM430.06 196.3h80v40h-80z" fill="#fff"/><path d="M510.06 196.3h80v40h-80zM350.06 236.3h80v40h-80zM430.06 236.3h80v40h-80z" fill="#fff"/><path d="M510.06 236.3h80v40h-80z" fill="#fff"/><path d="M350.06 156.3v40M430.06 156.3v40M510.06 156.3v40M590.06 156.3v40M350.06 196.3v40M430.06 196.3v40M510.06 196.3v40M590.06 196.3v40M350.06 236.3v40M430.06 236.3v40M510.06 236.3v40M590.06 236.3v40M350.06 156.3h80M430.06 156.3h80M510.06 156.3h80M350.06 196.3h80M430.06 196.3h80M510.06 196.3h80M350.06 236.3h80M350.06 276.3h80M430.06 236.3h80M430.06 276.3h80M510.06 236.3h80M510.06 276.3h80" stroke="#333" stroke-width="3" fill="none"/><path d="M836.15 505.2c-27.57 0-55.15 6.93-55.15 19.67v121.98c0 12.9 27.8 19.68 55.15 19.68 27.36 0 55.16-6.78 55.16-19.68V524.87c0-12.9-27.57-19.68-55.15-19.68zm0 6.93c29.13 0 48.32 7.74 48.32 12.74s-19.3 12.75-48.32 12.75c-28.9 0-48.2-7.75-48.2-12.75 0-5.16 19.08-12.74 48.2-12.74zm0 147.46c-29.12 0-48.2-7.75-48.2-12.75V616.2c9.92 6.45 29.23 9.67 48.2 9.67 19.1 0 38.4-3.4 48.32-9.68v30.65c0 5-19.2 12.74-48.32 12.74zm0-40.67c-29.12 0-48.2-7.58-48.2-12.74v-30.67c9.92 6.3 29.23 9.68 48.2 9.68 19.1 0 38.4-3.54 48.32-9.67v30.66c0 5.15-19.2 12.73-48.32 12.73zm0-40.65c-31.77 0-48.2-8.23-48.2-12.75v-30.65c9.92 6.45 29.23 9.68 48.2 9.68 19.1 0 38.4-3.23 48.32-9.68v30.65c0 4.52-16.54 12.75-48.32 12.75z" stroke="#fff" stroke-opacity="0" fill="#c92d39"/><path d="M796.85 554.17h8.17v6.92h-8.17v-6.93zM796.85 594.83h8.17v6.93h-8.17v-6.93zM796.85 635.5h8.17v6.92h-8.17v-6.93zM809 554.17h14.4v6.92H809v-6.93zM809 594.83h14.4v6.93H809v-6.93zM809 635.5h14.4v6.92H809v-6.93z" stroke="#fff" stroke-opacity="0" fill="#c92d39"/><path d="M749.87 585.86H414.7" stroke="#333" stroke-width="3" fill="none"/><path d="M778.87 585.86l-14.84 14.85-15.16-14.84L764.03 571z" stroke="#333" stroke-width="3" fill="#333"/><path d="M414.74 587.36h-1.54v-3h1.54z" fill="#333"/><path d="M861.07 958.4c0-4.42 3.58-8 8-8h224c4.42 0 8 3.58 8 8v44c0 4.42-3.58 8-8 8h-224c-4.42 0-8-3.58-8-8z" fill="none"/><use xlink:href="#s" transform="matrix(1,0,0,1,861.0686279288636,950.3983349339635) translate(65.33950617283953 37.15555555555555)"/><path d="M391.23 1144.7v-127.25c0-6.62 5.38-12 12-12h420.92c6.63 0 12-5.37 12-12v-306.3" stroke="#333" stroke-width="3" fill="none"/><path d="M392.73 1146.2h-3v-1.54h3z" fill="#333"/><path d="M836.15 671.38l4.64 14.27h-9.28z" stroke="#333" stroke-width="3" fill="#333"/><path d="M1282.35 1144.7v-126.8c0-6.63-5.37-12-12-12h-422.2c-6.62 0-12-5.38-12-12V687.15" stroke="#333" stroke-width="3" fill="none"/><path d="M1283.85 1146.2h-3v-1.54h3z" fill="#333"/><path d="M836.15 671.38l4.64 14.27h-9.28z" stroke="#333" stroke-width="3" fill="#333"/><path d="M836.15 1276.07l-33.75 5.35v77.67l33.75-5.36z" stroke="#000" stroke-opacity="0" fill="#27ae60"/><path d="M802.4 1372.6l-33.75 8.77v23.6l33.75 6.1z" stroke="#000" stroke-opacity="0" fill="#3498db"/><path d="M768.65 1276.07v87.77l33.75-8.76v-73.66z" stroke="#000" stroke-opacity="0" fill="#2ecc71"/><path d="M836.15 1360.43l-33.75 17.52v33.12l33.75-6.1z" stroke="#000" stroke-opacity="0" fill="#2980b9"/><path d="M836.15 1339.5l-33.75 15.58v22.87l33.9-13.5z" stroke="#000" stroke-opacity="0" fill="#f39c12"/><path d="M815.5 1279.5l17 62.07 3.65-1.34v-64.16z" stroke="#000" stroke-opacity="0" fill="#f39c12"/><path d="M836.7 1276.07l16.33 72.92h16.88v-67.58z" stroke="#000" stroke-opacity="0" fill="#2ecc71"/><path d="M836.15 1276.07v69.5l16.88-2.07-16.34-67.43z" stroke="#000" stroke-opacity="0" fill="#f1c40f"/><path d="M870.04 1336.07l-33.9 4.75v28.37l33.77-3.43z" stroke="#000" stroke-opacity="0" fill="#f1c40f"/><path d="M869.9 1281.42v55.4l33.76-9.5v-51.25z" stroke="#000" stroke-opacity="0" fill="#27ae60"/><path d="M903.66 1343.5l-33.75 16.33v51.24l33.76-6.1z" stroke="#000" stroke-opacity="0" fill="#2980b9"/><path d="M869.9 1359.83l-33.75 4.6V1405l33.76 6.1z" stroke="#000" stroke-opacity="0" fill="#3498db"/><path d="M802.4 1355.08l-33.75 5.35v22.27l33.75-4.75z" stroke="#000" stroke-opacity="0" fill="#f1c40f"/><path d="M903.66 1320.63l-33.75 16.18v23.03l33.76-10.84z" stroke="#000" stroke-opacity="0" fill="#f39c12"/><path d="M811.85 1298.94c2.7-2.67 3.92-5.94 3.92-9.35 0-4.02-1.22-7.44-3.92-10.1-2.56-2.1-5.8-3.43-9.58-3.43-3.65 0-6.9 1.34-9.45 3.42-2.7 2.66-4.05 6.08-4.05 10.1 0 3.4 1.35 6.67 4.05 9.34 2.56 2.83 5.8 4.16 9.45 4.16 3.78 0 7.02-1.33 9.58-4.16m17.42-9.35c0 3.4-.54 6.67-1.62 9.34l-19.3 40.55c-.55 1.32-1.36 2.07-2.44 2.66-1.07.74-2.28 1.34-3.63 1.34-1.22 0-2.43-.6-3.5-1.34-1.1-.6-1.9-1.34-2.44-2.67l-19.3-40.56c-1.1-2.67-1.76-5.94-1.76-9.35 0-7.44 2.7-14.27 7.96-19.6 5.27-4.77 11.6-7.44 19.04-7.44 7.56 0 13.9 2.67 19.17 7.43 5.26 5.33 7.83 12.16 7.83 19.6" stroke="#000" stroke-opacity="0" fill="#c0392b"/><path d="M396.53 1217.26v107.55c0 6.64 5.37 12 12 12h329" stroke="#333" stroke-width="3" fill="none"/><path d="M398.03 1217.3h-3v-1.54h3z" fill="#333"/><path d="M766.53 1336.8l-14.85 14.86-15.15-14.85 15.15-14.84z" stroke="#333" stroke-width="3" fill="#333"/><path d="M1280.06 1217.26v107.55c0 6.64-5.37 12-12 12H934.78" stroke="#333" stroke-width="3" fill="none"/><path d="M1281.56 1217.3h-3v-1.54h3z" fill="#333"/><path d="M905.78 1336.8l14.85-14.84 15.15 14.85-15.15 14.86z" stroke="#333" stroke-width="3" fill="#333"/><path d="M1587 1212.6c-15.08 0-30.17 3.8-30.17 10.78v66.74c0 7.07 15.2 10.77 30.18 10.77s30.2-3.7 30.2-10.78v-66.74c0-7.06-15.1-10.77-30.2-10.77zm0 3.8c15.95 0 26.45 4.25 26.45 6.98 0 2.74-10.56 6.98-26.44 6.98-15.8 0-26.36-4.24-26.36-6.98 0-2.82 10.44-6.97 26.37-6.97zm0 80.7c-15.92 0-26.36-4.24-26.36-6.98v-16.77c5.43 3.53 16 5.3 26.37 5.3 10.46 0 21.02-1.86 26.45-5.3v16.77c0 2.74-10.5 6.98-26.44 6.98zm0-22.25c-15.92 0-26.36-4.15-26.36-6.97v-16.78c5.43 3.45 16 5.3 26.37 5.3 10.46 0 21.02-1.94 26.45-5.3v16.78c0 2.82-10.5 6.97-26.44 6.97zm0-22.24c-17.37 0-26.36-4.5-26.36-6.97v-16.77c5.43 3.53 16 5.3 26.37 5.3 10.46 0 21.02-1.77 26.45-5.3v16.77c0 2.47-9.05 6.98-26.44 6.98z" stroke="#fff" stroke-opacity="0" fill="#c92d39"/><path d="M1565.5 1239.4h4.48v3.8h-4.47v-3.8zM1565.5 1261.66h4.48v3.8h-4.47v-3.8zM1565.5 1283.9h4.48v3.8h-4.47v-3.8zM1572.15 1239.4h7.9v3.8h-7.9v-3.8zM1572.15 1261.66h7.9v3.8h-7.9v-3.8zM1572.15 1283.9h7.9v3.8h-7.9v-3.8z" stroke="#fff" stroke-opacity="0" fill="#c92d39"/><path d="M1586.78 1337.2l-14.97 2.38v34.45l14.98-2.37z" stroke="#000" stroke-opacity="0" fill="#27ae60"/><path d="M1571.8 1380.03l-14.97 3.88v10.5l14.98 2.7z" stroke="#000" stroke-opacity="0" fill="#3498db"/><path d="M1556.83 1337.2v38.94l14.98-3.9v-32.66z" stroke="#000" stroke-opacity="0" fill="#2ecc71"/><path d="M1586.78 1374.63l-14.97 7.77v14.7l14.98-2.7z" stroke="#000" stroke-opacity="0" fill="#2980b9"/><path d="M1586.78 1365.34l-14.97 6.9v10.16l15.04-6z" stroke="#000" stroke-opacity="0" fill="#f39c12"/><path d="M1577.6 1338.72l7.56 27.54 1.62-.6v-28.45z" stroke="#000" stroke-opacity="0" fill="#f39c12"/><path d="M1587.02 1337.2l7.24 32.35h7.5v-29.97z" stroke="#000" stroke-opacity="0" fill="#2ecc71"/><path d="M1586.78 1337.2v30.84l7.48-.92-7.24-29.9z" stroke="#000" stroke-opacity="0" fill="#f1c40f"/><path d="M1601.8 1363.82l-15.02 2.1v12.6l14.97-1.52z" stroke="#000" stroke-opacity="0" fill="#f1c40f"/><path d="M1601.75 1339.58v24.57l14.97-4.2v-22.74z" stroke="#000" stroke-opacity="0" fill="#27ae60"/><path d="M1616.72 1367.12l-14.97 7.24v22.73l14.97-2.7z" stroke="#000" stroke-opacity="0" fill="#2980b9"/><path d="M1601.75 1374.36l-14.97 2.04v18l14.97 2.7z" stroke="#000" stroke-opacity="0" fill="#3498db"/><path d="M1571.8 1372.25l-14.97 2.38v9.88l14.98-2.1z" stroke="#000" stroke-opacity="0" fill="#f1c40f"/><path d="M1616.72 1356.97l-14.97 7.18v10.2l14.97-4.8z" stroke="#000" stroke-opacity="0" fill="#f39c12"/><path d="M1576 1347.35c1.2-1.18 1.73-2.63 1.73-4.15 0-1.78-.53-3.3-1.73-4.48-1.14-.92-2.58-1.5-4.25-1.5-1.62 0-3.06.58-4.2 1.5-1.2 1.2-1.8 2.7-1.8 4.48 0 1.52.6 2.97 1.8 4.15 1.14 1.26 2.58 1.85 4.2 1.85 1.67 0 3.1-.6 4.25-1.85m7.72-4.15c0 1.52-.24 2.97-.72 4.15l-8.56 18c-.24.58-.6.9-1.08 1.17-.48.33-1.02.6-1.6.6-.55 0-1.1-.27-1.57-.6-.5-.26-.85-.6-1.1-1.18l-8.55-18c-.48-1.17-.78-2.62-.78-4.14 0-3.3 1.2-6.32 3.53-8.7 2.34-2.1 5.15-3.3 8.45-3.3 3.35 0 6.16 1.2 8.5 3.3 2.34 2.38 3.47 5.4 3.47 8.7" stroke="#000" stroke-opacity="0" fill="#c0392b"/><path d="M836.15 1274.57v-576.9" stroke="#333" stroke-width="3" fill="none"/><path d="M837.65 1276.23l-.96-.16h-.55l-1.5.24v-1.76h3z" fill="#333"/><path d="M836.15 668.65L851 683.5l-14.85 15.15-14.84-15.15z" stroke="#333" stroke-width="3" fill="#333"/><path d="M1362.1 585.86H922.44" stroke="#333" stroke-width="3" fill="none"/><path d="M1363.6 587.36h-1.54v-3h1.54z" fill="#333"/><path d="M893.44 585.86L908.28 571l15.16 14.86-15.16 14.85z" stroke="#333" stroke-width="3" fill="#333"/><path d="M1039.62 533.52c0-4.4 3.58-8 8-8h224c4.42 0 8 3.6 8 8v44c0 4.42-3.58 8-8 8h-224c-4.42 0-8-3.58-8-8z" fill="none"/><use xlink:href="#s" transform="matrix(1,0,0,1,1039.6190893635578,525.523730329159) translate(65.33950617283953 37.15555555555555)"/><path d="M836.15 503.7V388.8c0-6.64-5.37-12-12-12h-342.1c-6.62 0-12-5.4-12-12v-56" stroke="#333" stroke-width="3" fill="none"/><path d="M837.65 505.2h-1.5l-1.5.06v-1.6h3z" fill="#333"/><path d="M485.06 294.3c0 8.3-6.7 15-15 15-8.28 0-15-6.7-15-15 0-8.28 6.72-15 15-15 8.3 0 15 6.72 15 15z" stroke="#333" stroke-width="3" fill="#333"/><path d="M836.15 503.7V390.25c0-6.62 5.38-12 12-12h340.2c6.63 0 12-5.37 12-12v-83.92" stroke="#333" stroke-width="3" fill="none"/><path d="M837.65 505.2h-1.5l-1.5.06v-1.6h3z" fill="#333"/><path d="M1215.35 267.84c0 8.28-6.7 15-15 15-8.28 0-15-6.72-15-15 0-8.3 6.72-15 15-15 8.3 0 15 6.7 15 15z" stroke="#333" stroke-width="3" fill="#333"/><path d="M701.87 174.84c0-4.42 3.58-8 8-8h250c4.42 0 8 3.58 8 8v68c0 4.42-3.58 8-8 8h-250c-4.42 0-8-3.58-8-8z" stroke="#333" stroke-width="3" fill="#fff"/><path d="M701.87 174.84c0-4.42 3.58-8 8-8h250c4.42 0 8 3.58 8 8v26c0 4.42-3.58 8-8 8h-250c-4.42 0-8-3.58-8-8z" stroke="#333" stroke-width="3" fill="#fff"/><path d="M931.87 180.84c0-4.42 3.58-8 8-8h14c4.42 0 8 3.58 8 8v14c0 4.42-3.58 8-8 8h-14c-4.42 0-8-3.58-8-8z" stroke="#333" stroke-width="3" fill="none"/><path d="M937.87 181.84h18l-9 12z" stroke="#333" stroke-width="3" fill="#333"/><use xlink:href="#v" transform="matrix(1,0,0,1,713.8691370613074,166.8376695903136) translate(76.22253086419755 26.377777777777776)"/><use xlink:href="#w" transform="matrix(1,0,0,1,713.8691370613074,208.8376695903136) translate(109.7962962962963 26.377777777777776)"/><path d="M1194.34 26.5l3.24 1.34 2.8 2.15 2.17 2.8 1.34 3.24.44 3.4V150.8h-3V39.64l-.37-2.82-1.04-2.5-1.68-2.2-2.18-1.66-2.5-1.04-2.83-.37H846.97l-2.82.37-2.52 1.04-2.18 1.67-1.67 2.18-1.04 2.52-.37 2.82v84.23h-3V39.45l.45-3.4 1.34-3.25 2.15-2.8 2.82-2.16 3.24-1.35 3.4-.45h344.17z" fill="#333"/><path fill="#333"/><path d="M1206.73 150.8l3.6 1.48 3.1 2.4 2.4 3.1 1.5 3.6.5 3.9-.5 3.9-1.5 3.6-2.4 3.1-3.1 2.4-3.6 1.5-3.9.5-3.9-.5-3.58-1.5-3.12-2.4-2.4-3.1-1.48-3.6-.5-3.9.5-3.9 1.5-3.6 2.38-3.1 3.12-2.4 3.6-1.5 3.9-.5z" fill="#333"/><path d="M1207.12 149.33l3.96 1.64 3.43 2.63 2.65 3.43 1.64 3.96.55 4.28-.56 4.28-1.65 3.96-2.64 3.43-3.42 2.64-3.96 1.63-4.28.56-4.3-.57-3.95-1.64-3.44-2.65-2.63-3.43-1.65-3.96-.56-4.28.56-4.3 1.65-3.95 2.63-3.43 3.43-2.63 3.95-1.64 4.3-.56zm-7.8 2.92l-3.22 1.34-2.8 2.14-2.15 2.8-1.34 3.24-.45 3.5.46 3.5 1.35 3.23 2.15 2.8 2.8 2.17 3.23 1.34 3.5.47 3.5-.46 3.24-1.33 2.8-2.16 2.15-2.8 1.34-3.22.46-3.5-.46-3.5-1.33-3.23-2.16-2.8-2.8-2.16-3.23-1.35-3.5-.46z" fill="#333"/><use xlink:href="#x" transform="matrix(1,0,0,1,737.5734580489616,123.87100292364693) translate(0.0049999999999954525 28.622222222222213)"/><use xlink:href="#r" transform="matrix(1,0,0,1,737.5734580489616,123.87100292364693) translate(71.46117283950613 28.622222222222213)"/><path d="M1321.18 216.3h164.31" stroke="#333" stroke-width="3" fill="none"/><path d="M1321.22 217.8h-1.54v-3h1.54z" fill="#333"/><path d="M1514.5 216.3l-14.85 14.86-15.15-14.85 15.15-14.84z" stroke="#333" stroke-width="3" fill="#333"/><path d="M836.15 503.7V283.33" stroke="#333" stroke-width="3" fill="none"/><path d="M837.65 505.2h-1.5l-1.5.06v-1.6h3z" fill="#333"/><path d="M851.15 268.84c0 8.28-6.7 15-15 15-8.28 0-15-6.72-15-15 0-8.3 6.72-15 15-15 8.3 0 15 6.7 15 15z" stroke="#333" stroke-width="3" fill="#333"/><path d="M254.04 812.06c0-4.42 3.58-8 8-8H543.3c4.42 0 8 3.58 8 8v68c0 4.4-3.58 8-8 8H262.04c-4.42 0-8-3.6-8-8z" stroke="#333" stroke-width="3" fill="#fff"/><path d="M254.04 812.06c0-4.42 3.58-8 8-8H543.3c4.42 0 8 3.58 8 8v26c0 4.4-3.58 8-8 8H262.04c-4.42 0-8-3.6-8-8z" stroke="#333" stroke-width="3" fill="#fff"/><path d="M515.3 818.06c0-4.42 3.58-8 8-8h14c4.42 0 8 3.58 8 8v14c0 4.4-3.58 8-8 8h-14c-4.42 0-8-3.6-8-8z" stroke="#333" stroke-width="3" fill="none"/><path d="M521.3 819.06h18l-9 12z" stroke="#333" stroke-width="3" fill="#333"/><use xlink:href="#y" transform="matrix(1,0,0,1,266.0360856582852,804.0555710634906) translate(56.370679012345704 26.377777777777776)"/><use xlink:href="#z" transform="matrix(1,0,0,1,266.0360856582852,804.0555710634906) translate(153.46944444444443 26.377777777777776)"/><use xlink:href="#w" transform="matrix(1,0,0,1,266.0360856582852,846.0555710634906) translate(125.7962962962963 26.377777777777776)"/><path d="M789.98 659.6v175.54c0 6.62-5.37 12-12 12H671.44c-.03 0-.05.02-.05.05 0 0-.03.04-.06.04H583.8" stroke="#333" stroke-width="3" fill="none"/><path d="M790.23 658.24l1.25.58v.8h-3v-2.4z" fill="#333"/><path d="M584.3 847.24c0 8.28-6.72 15-15 15-8.28 0-15-6.72-15-15 0-8.3 6.72-15 15-15 8.28 0 15 6.7 15 15z" stroke="#333" stroke-width="3" fill="#333"/><path d="M1114.22 812.06c0-4.42 3.58-8 8-8h310c4.42 0 8 3.58 8 8v68c0 4.4-3.58 8-8 8h-310c-4.42 0-8-3.6-8-8z" stroke="#333" stroke-width="3" fill="#fff"/><path d="M1114.22 812.06c0-4.42 3.58-8 8-8h310c4.42 0 8 3.58 8 8v26c0 4.4-3.58 8-8 8h-310c-4.42 0-8-3.6-8-8z" stroke="#333" stroke-width="3" fill="#fff"/><path d="M1404.22 818.06c0-4.42 3.58-8 8-8h14c4.42 0 8 3.58 8 8v14c0 4.4-3.58 8-8 8h-14c-4.42 0-8-3.6-8-8z" stroke="#333" stroke-width="3" fill="none"/><path d="M1410.22 819.06h18l-9 12z" stroke="#333" stroke-width="3" fill="#333"/><use xlink:href="#A" transform="matrix(1,0,0,1,1126.2222018111413,804.0555710634906) translate(95.76574074074077 26.377777777777776)"/><use xlink:href="#w" transform="matrix(1,0,0,1,1126.2222018111413,846.0555710634906) translate(139.7962962962963 26.377777777777776)"/><path d="M883.13 659.13v176.1c0 6.63 5.37 12 12 12h186.6" stroke="#333" stroke-width="3" fill="none"/><path d="M884.63 659.17h-3v-.72l2.2-1.2.8-.53z" fill="#333"/><path d="M1111.22 847.24c0 8.28-6.7 15-15 15-8.28 0-15-6.72-15-15 0-8.3 6.72-15 15-15 8.3 0 15 6.7 15 15z" stroke="#333" stroke-width="3" fill="#333"/><path d="M80 551.33h333.2v69.06H80z" fill="#dfe0df"/><path d="M80 620.4h333.2" stroke="#c6c5c6" fill="none"/><use xlink:href="#B" transform="matrix(1,0,0,1,146.63951938423128,568.5942931012662) translate(0.5416666666666714 28)"/><use xlink:href="#C" transform="matrix(1,0,0,1,146.63951938423128,568.5942931012662) translate(87.06944444444444 28)"/><path d="M240.15 1146.2h325.03v69.06H240.15z" fill="#dfe0df"/><path d="M240.15 1215.26h325.03" stroke="#c6c5c6" fill="none"/><use xlink:href="#D" transform="matrix(1,0,0,1,305.1585122101943,1163.4675092492173) translate(6.368055555555557 28)"/><use xlink:href="#E" transform="matrix(1,0,0,1,305.1585122101943,1163.4675092492173) translate(106.40972222222223 28)"/><path d="M1443.22 846.06h157c6.63 0 12-5.38 12-12v-154.7" stroke="#333" stroke-width="3" fill="none"/><path d="M1443.26 847.56h-1.54v-3h1.54z" fill="#333"/><path d="M1627.22 664.85c0 8.3-6.72 15-15 15-8.28 0-15-6.7-15-15 0-8.28 6.72-15 15-15 8.28 0 15 6.72 15 15z" stroke="#333" stroke-width="3" fill="#333"/><path d="M1088.25 1146.2h377.94v69.06h-377.95z" fill="#dfe0df"/><path d="M1088.25 1215.26h377.94" stroke="#c6c5c6" fill="none"/><g><use xlink:href="#F" transform="matrix(1,0,0,1,1163.839503959042,1163.4675092492173) translate(7.430555555555543 28)"/><use xlink:href="#E" transform="matrix(1,0,0,1,1163.839503959042,1163.4675092492173) translate(136.34722222222223 28)"/></g><path d="M1079.68 181.78h240v69.06h-240z" fill="#dfe0df"/><path d="M1079.68 250.84h240" stroke="#c6c5c6" fill="none"/><g><use xlink:href="#G" transform="matrix(1,0,0,1,1127.6772967300512,199.04286544744372) translate(42.45833333333333 28)"/></g><path d="M1527.62 112.16c-4.42 0-8 3.58-8 8v192.3c0 4.42 3.58 8 8 8h266.58c4.42 0 8-3.58 8-8v-192.3c0-4.42-3.58-8-8-8z" fill="none"/><path d="M1519.62 237.14l77 18.92c4.3 1.05 10.66-.22 14.2-2.84l71.9-53c3.57-2.62 9.66-3.16 13.63-1.2l77.6 38.12" stroke="#ababab" stroke-width="6" fill="none"/><path d="M1519.62 299.63l79.07-77.7c3.14-3.1 8.9-4.04 12.87-2.1l70.42 34.6c3.96 1.96 9.43.76 12.22-2.67l79.73-97.94" stroke="#545454" stroke-width="6" fill="none"/><path d="M1519.62 112.16v200.3c0 4.42 3.58 8 8 8h274.58" stroke="#333" stroke-width="6" fill="none"/><path d="M251.04 846.06H93.84c-6.62 0-12 5.37-12 12v312.02c0 6.63 5.38 12 12 12h115.3" stroke="#333" stroke-width="3" fill="none"/><path d="M252.54 847.56H251v-3h1.54z" fill="#333"/><path d="M238.65 1182.08c0 8.3-6.7 15-15 15-8.28 0-15-6.7-15-15 0-8.28 6.72-15 15-15 8.3 0 15 6.72 15 15z" stroke="#333" stroke-width="3" fill="#333"/><path d="M1363.6 523.87h475.66v123.98H1363.6z" fill="#dfe0df"/><path d="M1363.6 647.85h475.66" stroke="#c6c5c6" fill="none"/><g><use xlink:href="#H" transform="matrix(1,0,0,1,1458.7305216438513,554.862175708758) translate(41.69444444444446 28)"/><use xlink:href="#I" transform="matrix(1,0,0,1,1458.7305216438513,554.862175708758) translate(122.29166666666667 28)"/><use xlink:href="#J" transform="matrix(1,0,0,1,1458.7305216438513,554.862175708758) translate(76.01388888888889 70)"/></g><defs><path fill="#333" d="M212-179c-10-28-35-45-73-45-59 0-87 40-87 99 0 60 29 101 89 101 43 0 62-24 78-52l27 14C228-24 195 4 139 4 59 4 22-46 18-125c-6-104 99-153 187-111 19 9 31 26 39 46" id="K"/><path fill="#333" d="M100-194c62-1 85 37 85 99 1 63-27 99-86 99S16-35 15-95c0-66 28-99 85-99zM99-20c44 1 53-31 53-75 0-43-8-75-51-75s-53 32-53 75 10 74 51 75" id="L"/><path fill="#333" d="M24 0v-261h32V0H24" id="M"/><path fill="#333" d="M84 4C-5 8 30-112 23-190h32v120c0 31 7 50 39 49 72-2 45-101 50-169h31l1 190h-30c-1-10 1-25-2-33-11 22-28 36-60 37" id="N"/><path fill="#333" d="M210-169c-67 3-38 105-44 169h-31v-121c0-29-5-50-35-48C34-165 62-65 56 0H25l-1-190h30c1 10-1 24 2 32 10-44 99-50 107 0 11-21 27-35 58-36 85-2 47 119 55 194h-31v-121c0-29-5-49-35-48" id="O"/><path fill="#333" d="M117-194c89-4 53 116 60 194h-32v-121c0-31-8-49-39-48C34-167 62-67 57 0H25l-1-190h30c1 10-1 24 2 32 11-22 29-35 61-36" id="P"/><g id="a"><use transform="matrix(0.09938271604938267,0,0,0.09938271604938267,0,0)" xlink:href="#K"/><use transform="matrix(0.09938271604938267,0,0,0.09938271604938267,25.740123456790112,0)" xlink:href="#L"/><use transform="matrix(0.09938271604938267,0,0,0.09938271604938267,45.616666666666646,0)" xlink:href="#M"/><use transform="matrix(0.09938271604938267,0,0,0.09938271604938267,53.467901234567876,0)" xlink:href="#N"/><use transform="matrix(0.09938271604938267,0,0,0.09938271604938267,73.3444444444444,0)" xlink:href="#O"/><use transform="matrix(0.09938271604938267,0,0,0.09938271604938267,103.05987654320984,0)" xlink:href="#P"/></g><path fill="#333" d="M33 0v-248h34V0H33" id="Q"/><path fill="#333" d="M115-194c55 1 70 41 70 98S169 2 115 4C84 4 66-9 55-30l1 105H24l-1-265h31l2 30c10-21 28-34 59-34zm-8 174c40 0 45-34 45-75s-6-73-45-74c-42 0-51 32-51 76 0 43 10 73 51 73" id="R"/><path fill="#333" d="M59-47c-2 24 18 29 38 22v24C64 9 27 4 27-40v-127H5v-23h24l9-43h21v43h35v23H59v120" id="S"/><path fill="#333" d="M135-143c-3-34-86-38-87 0 15 53 115 12 119 90S17 21 10-45l28-5c4 36 97 45 98 0-10-56-113-15-118-90-4-57 82-63 122-42 12 7 21 19 24 35" id="T"/><g id="b"><use transform="matrix(0.09938271604938267,0,0,0.09938271604938267,0,0)" xlink:href="#Q"/><use transform="matrix(0.09938271604938267,0,0,0.09938271604938267,9.938271604938267,0)" xlink:href="#P"/><use transform="matrix(0.09938271604938267,0,0,0.09938271604938267,29.814814814814802,0)" xlink:href="#R"/><use transform="matrix(0.09938271604938267,0,0,0.09938271604938267,49.69135802469134,0)" xlink:href="#N"/><use transform="matrix(0.09938271604938267,0,0,0.09938271604938267,69.56790123456787,0)" xlink:href="#S"/><use transform="matrix(0.09938271604938267,0,0,0.09938271604938267,79.50617283950614,0)" xlink:href="#T"/></g><path fill="#333" d="M114-163C36-179 61-72 57 0H25l-1-190h30c1 12-1 29 2 39 6-27 23-49 58-41v29" id="U"/><path fill="#333" d="M100-194c63 0 86 42 84 106H49c0 40 14 67 53 68 26 1 43-12 49-29l28 8c-11 28-37 45-77 45C44 4 14-33 15-96c1-61 26-98 85-98zm52 81c6-60-76-77-97-28-3 7-6 17-6 28h103" id="V"/><path fill="#333" d="M141-36C126-15 110 5 73 4 37 3 15-17 15-53c-1-64 63-63 125-63 3-35-9-54-41-54-24 1-41 7-42 31l-33-3c5-37 33-52 76-52 45 0 72 20 72 64v82c-1 20 7 32 28 27v20c-31 9-61-2-59-35zM48-53c0 20 12 33 32 33 41-3 63-29 60-74-43 2-92-5-92 41" id="W"/><path fill="#333" d="M96-169c-40 0-48 33-48 73s9 75 48 75c24 0 41-14 43-38l32 2c-6 37-31 61-74 61-59 0-76-41-82-99-10-93 101-131 147-64 4 7 5 14 7 22l-32 3c-4-21-16-35-41-35" id="X"/><path fill="#333" d="M24-231v-30h32v30H24zM24 0v-190h32V0H24" id="Y"/><path fill="#333" d="M108 0H70L1-190h34L89-25l56-165h34" id="Z"/><g id="c"><use transform="matrix(0.07469135802469135,0,0,0.07469135802469135,0,0)" xlink:href="#U"/><use transform="matrix(0.07469135802469135,0,0,0.07469135802469135,8.88827160493827,0)" xlink:href="#V"/><use transform="matrix(0.07469135802469135,0,0,0.07469135802469135,23.82654320987654,0)" xlink:href="#W"/><use transform="matrix(0.07469135802469135,0,0,0.07469135802469135,38.764814814814805,0)" xlink:href="#X"/><use transform="matrix(0.07469135802469135,0,0,0.07469135802469135,52.20925925925926,0)" xlink:href="#S"/><use transform="matrix(0.07469135802469135,0,0,0.07469135802469135,59.67839506172839,0)" xlink:href="#Y"/><use transform="matrix(0.07469135802469135,0,0,0.07469135802469135,65.579012345679,0)" xlink:href="#Z"/><use transform="matrix(0.07469135802469135,0,0,0.07469135802469135,79.02345679012345,0)" xlink:href="#V"/></g><path fill="#333" d="M85-194c31 0 48 13 60 33l-1-100h32l1 261h-30c-2-10 0-23-3-31C134-8 116 4 85 4 32 4 16-35 15-94c0-66 23-100 70-100zm9 24c-40 0-46 34-46 75 0 40 6 74 45 74 42 0 51-32 51-76 0-42-9-74-50-73" id="aa"/><g id="d"><use transform="matrix(0.07469135802469135,0,0,0.07469135802469135,0,0)" xlink:href="#aa"/><use transform="matrix(0.07469135802469135,0,0,0.07469135802469135,14.938271604938269,0)" xlink:href="#W"/><use transform="matrix(0.07469135802469135,0,0,0.07469135802469135,29.876543209876537,0)" xlink:href="#S"/><use transform="matrix(0.07469135802469135,0,0,0.07469135802469135,37.34567901234567,0)" xlink:href="#W"/></g><g id="e"><use transform="matrix(0.09938271604938267,0,0,0.09938271604938267,0,0)" xlink:href="#N"/><use transform="matrix(0.09938271604938267,0,0,0.09938271604938267,19.876543209876534,0)" xlink:href="#R"/><use transform="matrix(0.09938271604938267,0,0,0.09938271604938267,39.75308641975307,0)" xlink:href="#aa"/><use transform="matrix(0.09938271604938267,0,0,0.09938271604938267,59.629629629629605,0)" xlink:href="#W"/><use transform="matrix(0.09938271604938267,0,0,0.09938271604938267,79.50617283950614,0)" xlink:href="#S"/><use transform="matrix(0.09938271604938267,0,0,0.09938271604938267,89.4444444444444,0)" xlink:href="#V"/></g><path fill="#333" d="M115-194c53 0 69 39 70 98 0 66-23 100-70 100C84 3 66-7 56-30L54 0H23l1-261h32v101c10-23 28-34 59-34zm-8 174c40 0 45-34 45-75 0-40-5-75-45-74-42 0-51 32-51 76 0 43 10 73 51 73" id="ab"/><path fill="#333" d="M179-190L93 31C79 59 56 82 12 73V49c39 6 53-20 64-50L1-190h34L92-34l54-156h33" id="ac"/><g id="f"><use transform="matrix(0.09938271604938267,0,0,0.09938271604938267,0,0)" xlink:href="#ab"/><use transform="matrix(0.09938271604938267,0,0,0.09938271604938267,19.876543209876534,0)" xlink:href="#ac"/></g><path fill="#333" d="M177-190C167-65 218 103 67 71c-23-6-38-20-44-43l32-5c15 47 100 32 89-28v-30C133-14 115 1 83 1 29 1 15-40 15-95c0-56 16-97 71-98 29-1 48 16 59 35 1-10 0-23 2-32h30zM94-22c36 0 50-32 50-73 0-42-14-75-50-75-39 0-46 34-46 75s6 73 46 73" id="ad"/><g id="g"><use transform="matrix(0.09938271604938267,0,0,0.09938271604938267,0,0)" xlink:href="#O"/><use transform="matrix(0.09938271604938267,0,0,0.09938271604938267,29.71543209876542,0)" xlink:href="#L"/><use transform="matrix(0.09938271604938267,0,0,0.09938271604938267,49.59197530864195,0)" xlink:href="#Z"/><use transform="matrix(0.09938271604938267,0,0,0.09938271604938267,67.48086419753083,0)" xlink:href="#Y"/><use transform="matrix(0.09938271604938267,0,0,0.09938271604938267,75.33209876543206,0)" xlink:href="#P"/><use transform="matrix(0.09938271604938267,0,0,0.09938271604938267,95.2086419753086,0)" xlink:href="#ad"/></g><g id="h"><use transform="matrix(0.09938271604938267,0,0,0.09938271604938267,0,0)" xlink:href="#W"/><use transform="matrix(0.09938271604938267,0,0,0.09938271604938267,19.876543209876534,0)" xlink:href="#aa"/><use transform="matrix(0.09938271604938267,0,0,0.09938271604938267,39.75308641975307,0)" xlink:href="#aa"/></g><path fill="#333" d="M106-169C34-169 62-67 57 0H25v-261h32l-1 103c12-21 28-36 61-36 89 0 53 116 60 194h-32v-121c2-32-8-49-39-48" id="ae"/><g id="i"><use transform="matrix(0.09938271604938267,0,0,0.09938271604938267,0,0)" xlink:href="#ae"/><use transform="matrix(0.09938271604938267,0,0,0.09938271604938267,19.876543209876534,0)" xlink:href="#Y"/><use transform="matrix(0.09938271604938267,0,0,0.09938271604938267,27.727777777777767,0)" xlink:href="#ad"/><use transform="matrix(0.09938271604938267,0,0,0.09938271604938267,47.604320987654305,0)" xlink:href="#ae"/><use transform="matrix(0.09938271604938267,0,0,0.09938271604938267,67.48086419753083,0)" xlink:href="#M"/><use transform="matrix(0.09938271604938267,0,0,0.09938271604938267,75.33209876543206,0)" xlink:href="#Y"/><use transform="matrix(0.09938271604938267,0,0,0.09938271604938267,83.1833333333333,0)" xlink:href="#ad"/><use transform="matrix(0.09938271604938267,0,0,0.09938271604938267,103.05987654320984,0)" xlink:href="#ae"/><use transform="matrix(0.09938271604938267,0,0,0.09938271604938267,122.93641975308634,0)" xlink:href="#S"/><use transform="matrix(0.09938271604938267,0,0,0.09938271604938267,132.87469135802462,0)" xlink:href="#T"/></g><g id="j"><use transform="matrix(0.09938271604938267,0,0,0.09938271604938267,0,0)" xlink:href="#Y"/><use transform="matrix(0.09938271604938267,0,0,0.09938271604938267,7.851234567901232,0)" xlink:href="#P"/><use transform="matrix(0.09938271604938267,0,0,0.09938271604938267,27.727777777777767,0)" xlink:href="#Y"/><use transform="matrix(0.09938271604938267,0,0,0.09938271604938267,35.579012345679,0)" xlink:href="#S"/><use transform="matrix(0.09938271604938267,0,0,0.09938271604938267,45.51728395061726,0)" xlink:href="#Y"/><use transform="matrix(0.09938271604938267,0,0,0.09938271604938267,53.3685185185185,0)" xlink:href="#W"/><use transform="matrix(0.09938271604938267,0,0,0.09938271604938267,73.24506172839503,0)" xlink:href="#M"/><use transform="matrix(0.09938271604938267,0,0,0.09938271604938267,81.09629629629626,0)" xlink:href="#Y"/><use transform="matrix(0.09938271604938267,0,0,0.09938271604938267,88.94753086419749,0)" xlink:href="#T"/><use transform="matrix(0.09938271604938267,0,0,0.09938271604938267,106.83641975308637,0)" xlink:href="#V"/></g><g id="k"><use transform="matrix(0.07469135802469135,0,0,0.07469135802469135,0,0)" xlink:href="#Y"/><use transform="matrix(0.07469135802469135,0,0,0.07469135802469135,5.900617283950616,0)" xlink:href="#P"/><use transform="matrix(0.07469135802469135,0,0,0.07469135802469135,20.838888888888885,0)" xlink:href="#S"/><use transform="matrix(0.07469135802469135,0,0,0.07469135802469135,28.30802469135802,0)" xlink:href="#V"/><use transform="matrix(0.07469135802469135,0,0,0.07469135802469135,43.2462962962963,0)" xlink:href="#U"/><use transform="matrix(0.07469135802469135,0,0,0.07469135802469135,52.13456790123456,0)" xlink:href="#W"/><use transform="matrix(0.07469135802469135,0,0,0.07469135802469135,67.07283950617283,0)" xlink:href="#X"/><use transform="matrix(0.07469135802469135,0,0,0.07469135802469135,80.51728395061727,0)" xlink:href="#S"/><use transform="matrix(0.07469135802469135,0,0,0.07469135802469135,87.98641975308641,0)" xlink:href="#Y"/><use transform="matrix(0.07469135802469135,0,0,0.07469135802469135,93.88703703703703,0)" xlink:href="#Z"/><use transform="matrix(0.07469135802469135,0,0,0.07469135802469135,107.33148148148148,0)" xlink:href="#V"/></g><g id="l"><use transform="matrix(0.07469135802469135,0,0,0.07469135802469135,0,0)" xlink:href="#O"/><use transform="matrix(0.07469135802469135,0,0,0.07469135802469135,22.33271604938271,0)" xlink:href="#W"/><use transform="matrix(0.07469135802469135,0,0,0.07469135802469135,37.270987654320976,0)" xlink:href="#R"/></g><path fill="#333" d="M9 0v-24l116-142H16v-24h144v24L44-24h123V0H9" id="af"/><g id="m"><use transform="matrix(0.09938271604938267,0,0,0.09938271604938267,0,0)" xlink:href="#af"/><use transform="matrix(0.09938271604938267,0,0,0.09938271604938267,17.888888888888882,0)" xlink:href="#L"/><use transform="matrix(0.09938271604938267,0,0,0.09938271604938267,37.765432098765416,0)" xlink:href="#L"/><use transform="matrix(0.09938271604938267,0,0,0.09938271604938267,57.64197530864195,0)" xlink:href="#O"/><use transform="matrix(0.09938271604938267,0,0,0.09938271604938267,87.35740740740736,0)" xlink:href="#Y"/><use transform="matrix(0.09938271604938267,0,0,0.09938271604938267,95.2086419753086,0)" xlink:href="#P"/><use transform="matrix(0.09938271604938267,0,0,0.09938271604938267,115.08518518518511,0)" xlink:href="#ad"/></g><g id="n"><use transform="matrix(0.09938271604938267,0,0,0.09938271604938267,0,0)" xlink:href="#U"/><use transform="matrix(0.09938271604938267,0,0,0.09938271604938267,11.826543209876538,0)" xlink:href="#V"/><use transform="matrix(0.09938271604938267,0,0,0.09938271604938267,31.703086419753074,0)" xlink:href="#O"/><use transform="matrix(0.09938271604938267,0,0,0.09938271604938267,61.418518518518496,0)" xlink:href="#L"/><use transform="matrix(0.09938271604938267,0,0,0.09938271604938267,81.29506172839503,0)" xlink:href="#Z"/><use transform="matrix(0.09938271604938267,0,0,0.09938271604938267,99.18395061728391,0)" xlink:href="#V"/></g><g id="o"><use transform="matrix(0.09938271604938267,0,0,0.09938271604938267,0,0)" xlink:href="#O"/><use transform="matrix(0.09938271604938267,0,0,0.09938271604938267,29.71543209876542,0)" xlink:href="#W"/><use transform="matrix(0.09938271604938267,0,0,0.09938271604938267,49.59197530864195,0)" xlink:href="#Y"/><use transform="matrix(0.09938271604938267,0,0,0.09938271604938267,57.44320987654317,0)" xlink:href="#P"/></g><g id="p"><use transform="matrix(0.09938271604938267,0,0,0.09938271604938267,0,0)" xlink:href="#aa"/><use transform="matrix(0.09938271604938267,0,0,0.09938271604938267,19.876543209876534,0)" xlink:href="#W"/><use transform="matrix(0.09938271604938267,0,0,0.09938271604938267,39.75308641975307,0)" xlink:href="#S"/><use transform="matrix(0.09938271604938267,0,0,0.09938271604938267,49.69135802469133,0)" xlink:href="#W"/><use transform="matrix(0.09938271604938267,0,0,0.09938271604938267,69.56790123456787,0)" xlink:href="#S"/><use transform="matrix(0.09938271604938267,0,0,0.09938271604938267,79.50617283950614,0)" xlink:href="#W"/><use transform="matrix(0.09938271604938267,0,0,0.09938271604938267,99.38271604938267,0)" xlink:href="#ab"/><use transform="matrix(0.09938271604938267,0,0,0.09938271604938267,119.25925925925918,0)" xlink:href="#M"/><use transform="matrix(0.09938271604938267,0,0,0.09938271604938267,127.11049382716041,0)" xlink:href="#V"/></g><path fill="#333" d="M63-220v92h138v28H63V0H30v-248h175v28H63" id="ag"/><g id="q"><use transform="matrix(0.09938271604938267,0,0,0.09938271604938267,0,0)" xlink:href="#ag"/><use transform="matrix(0.09938271604938267,0,0,0.09938271604938267,21.764814814814805,0)" xlink:href="#Y"/><use transform="matrix(0.09938271604938267,0,0,0.09938271604938267,29.61604938271604,0)" xlink:href="#M"/><use transform="matrix(0.09938271604938267,0,0,0.09938271604938267,37.467283950617265,0)" xlink:href="#S"/><use transform="matrix(0.09938271604938267,0,0,0.09938271604938267,47.40555555555553,0)" xlink:href="#V"/><use transform="matrix(0.09938271604938267,0,0,0.09938271604938267,67.28209876543207,0)" xlink:href="#U"/></g><path fill="#333" d="M140-251c81 0 123 46 123 126C263-46 219 4 140 4 59 4 17-45 17-125s42-126 123-126zm0 227c63 0 89-41 89-101s-29-99-89-99c-61 0-89 39-89 99S79-25 140-24" id="ah"/><g id="r"><use transform="matrix(0.09938271604938267,0,0,0.09938271604938267,0,0)" xlink:href="#ah"/><use transform="matrix(0.09938271604938267,0,0,0.09938271604938267,27.827160493827147,0)" xlink:href="#R"/><use transform="matrix(0.09938271604938267,0,0,0.09938271604938267,47.70370370370368,0)" xlink:href="#S"/><use transform="matrix(0.09938271604938267,0,0,0.09938271604938267,57.64197530864195,0)" xlink:href="#Y"/><use transform="matrix(0.09938271604938267,0,0,0.09938271604938267,65.49320987654318,0)" xlink:href="#L"/><use transform="matrix(0.09938271604938267,0,0,0.09938271604938267,85.3697530864197,0)" xlink:href="#P"/><use transform="matrix(0.09938271604938267,0,0,0.09938271604938267,105.24629629629624,0)" xlink:href="#T"/></g><g id="s"><use transform="matrix(0.09938271604938267,0,0,0.09938271604938267,0,0)" xlink:href="#N"/><use transform="matrix(0.09938271604938267,0,0,0.09938271604938267,19.876543209876534,0)" xlink:href="#R"/><use transform="matrix(0.09938271604938267,0,0,0.09938271604938267,39.75308641975307,0)" xlink:href="#aa"/><use transform="matrix(0.09938271604938267,0,0,0.09938271604938267,59.629629629629605,0)" xlink:href="#W"/><use transform="matrix(0.09938271604938267,0,0,0.09938271604938267,79.50617283950614,0)" xlink:href="#S"/><use transform="matrix(0.09938271604938267,0,0,0.09938271604938267,89.4444444444444,0)" xlink:href="#V"/></g><g id="t"><use transform="matrix(0.09938271604938267,0,0,0.09938271604938267,0,0)" xlink:href="#ad"/><use transform="matrix(0.09938271604938267,0,0,0.09938271604938267,19.876543209876534,0)" xlink:href="#V"/><use transform="matrix(0.09938271604938267,0,0,0.09938271604938267,39.75308641975307,0)" xlink:href="#P"/><use transform="matrix(0.09938271604938267,0,0,0.09938271604938267,59.629629629629605,0)" xlink:href="#V"/><use transform="matrix(0.09938271604938267,0,0,0.09938271604938267,79.50617283950614,0)" xlink:href="#U"/><use transform="matrix(0.09938271604938267,0,0,0.09938271604938267,91.33271604938267,0)" xlink:href="#W"/><use transform="matrix(0.09938271604938267,0,0,0.09938271604938267,111.20925925925918,0)" xlink:href="#S"/><use transform="matrix(0.09938271604938267,0,0,0.09938271604938267,121.14753086419746,0)" xlink:href="#V"/></g><g id="u"><use transform="matrix(0.09938271604938267,0,0,0.09938271604938267,0,0)" xlink:href="#R"/><use transform="matrix(0.09938271604938267,0,0,0.09938271604938267,19.876543209876534,0)" xlink:href="#M"/><use transform="matrix(0.09938271604938267,0,0,0.09938271604938267,27.727777777777767,0)" xlink:href="#L"/><use transform="matrix(0.09938271604938267,0,0,0.09938271604938267,47.604320987654305,0)" xlink:href="#S"/></g><path fill="#333" d="M160-131c35 5 61 23 61 61C221 17 115-2 30 0v-248c76 3 177-17 177 60 0 33-19 50-47 57zm-97-11c50-1 110 9 110-42 0-47-63-36-110-37v79zm0 115c55-2 124 14 124-45 0-56-70-42-124-44v89" id="ai"/><path fill="#333" d="M141 0L90-78 38 0H4l68-98-65-92h35l48 74 47-74h35l-64 92 68 98h-35" id="aj"/><g id="v"><use transform="matrix(0.07469135802469135,0,0,0.07469135802469135,0,0)" xlink:href="#ai"/><use transform="matrix(0.07469135802469135,0,0,0.07469135802469135,17.925925925925924,0)" xlink:href="#L"/><use transform="matrix(0.07469135802469135,0,0,0.07469135802469135,32.86419753086419,0)" xlink:href="#aj"/><use transform="matrix(0.07469135802469135,0,0,0.07469135802469135,46.30864197530863,0)" xlink:href="#R"/><use transform="matrix(0.07469135802469135,0,0,0.07469135802469135,61.2469135802469,0)" xlink:href="#M"/><use transform="matrix(0.07469135802469135,0,0,0.07469135802469135,67.1475308641975,0)" xlink:href="#L"/><use transform="matrix(0.07469135802469135,0,0,0.07469135802469135,82.08580246913577,0)" xlink:href="#S"/></g><path fill="#333" d="M33 0v-38h34V0H33" id="ak"/><g id="w"><use transform="matrix(0.07469135802469135,0,0,0.07469135802469135,0,0)" xlink:href="#ak"/><use transform="matrix(0.07469135802469135,0,0,0.07469135802469135,7.469135802469134,0)" xlink:href="#ak"/><use transform="matrix(0.07469135802469135,0,0,0.07469135802469135,14.938271604938269,0)" xlink:href="#ak"/></g><path fill="#333" d="M30-248c87 1 191-15 191 75 0 78-77 80-158 76V0H30v-248zm33 125c57 0 124 11 124-50 0-59-68-47-124-48v98" id="al"/><g id="x"><use transform="matrix(0.09938271604938267,0,0,0.09938271604938267,0,0)" xlink:href="#al"/><use transform="matrix(0.09938271604938267,0,0,0.09938271604938267,23.85185185185184,0)" xlink:href="#M"/><use transform="matrix(0.09938271604938267,0,0,0.09938271604938267,31.703086419753074,0)" xlink:href="#L"/><use transform="matrix(0.09938271604938267,0,0,0.09938271604938267,51.57962962962961,0)" xlink:href="#S"/></g><path fill="#333" d="M205 0l-28-72H64L36 0H1l101-248h38L239 0h-34zm-38-99l-47-123c-12 45-31 82-46 123h93" id="am"/><g id="y"><use transform="matrix(0.07469135802469135,0,0,0.07469135802469135,0,0)" xlink:href="#am"/><use transform="matrix(0.07469135802469135,0,0,0.07469135802469135,17.925925925925924,0)" xlink:href="#ad"/><use transform="matrix(0.07469135802469135,0,0,0.07469135802469135,32.86419753086419,0)" xlink:href="#V"/><use transform="matrix(0.07469135802469135,0,0,0.07469135802469135,47.802469135802454,0)" xlink:href="#P"/><use transform="matrix(0.07469135802469135,0,0,0.07469135802469135,62.74074074074072,0)" xlink:href="#X"/><use transform="matrix(0.07469135802469135,0,0,0.07469135802469135,76.18518518518516,0)" xlink:href="#ac"/></g><g id="z"><use transform="matrix(0.07469135802469135,0,0,0.07469135802469135,0,0)" xlink:href="#K"/><use transform="matrix(0.07469135802469135,0,0,0.07469135802469135,19.34506172839506,0)" xlink:href="#L"/><use transform="matrix(0.07469135802469135,0,0,0.07469135802469135,34.28333333333333,0)" xlink:href="#aa"/><use transform="matrix(0.07469135802469135,0,0,0.07469135802469135,49.2216049382716,0)" xlink:href="#V"/></g><path fill="#333" d="M-5 72V49h209v23H-5" id="an"/><g id="A"><use transform="matrix(0.07469135802469135,0,0,0.07469135802469135,0,0)" xlink:href="#T"/><use transform="matrix(0.07469135802469135,0,0,0.07469135802469135,13.444444444444443,0)" xlink:href="#W"/><use transform="matrix(0.07469135802469135,0,0,0.07469135802469135,28.38271604938271,0)" xlink:href="#O"/><use transform="matrix(0.07469135802469135,0,0,0.07469135802469135,50.71543209876541,0)" xlink:href="#R"/><use transform="matrix(0.07469135802469135,0,0,0.07469135802469135,65.65370370370368,0)" xlink:href="#an"/><use transform="matrix(0.07469135802469135,0,0,0.07469135802469135,80.59197530864195,0)" xlink:href="#P"/><use transform="matrix(0.07469135802469135,0,0,0.07469135802469135,95.53024691358021,0)" xlink:href="#L"/></g><path d="M128-223l-36 5v199l103-3 14-49h16l-7 71H6v-13l30-5v-200l-30-5v-13h122v13" id="ao"/><path d="M90-170c54-1 76 32 76 87 1 56-23 87-77 87-53 0-75-32-75-87s23-86 76-87zM89-14c28-2 26-38 26-69s3-69-26-69c-27 0-24 39-24 69s-3 66 24 69" id="ap"/><path d="M31-163c51-5 127-20 127 40v107l17 4V0h-61l-4-13C82 13 12 12 12-46c0-51 46-52 95-53 9-45-22-69-57-44l-7 20H31v-40zM62-47c0 30 26 34 45 23v-59c-28 0-45 6-45 36" id="aq"/><path d="M15-82c-4-69 47-101 113-83l-1-69-17-4v-12h68v234l18 4V0h-63l-4-9C77 23 5-9 15-82zm112-66c-43-16-64 17-61 65 2 33 3 67 32 67 12 0 22-3 29-8v-124" id="ar"/><g id="B"><use transform="matrix(0.09722222222222222,0,0,0.09722222222222222,0,0)" xlink:href="#ao"/><use transform="matrix(0.09722222222222222,0,0,0.09722222222222222,23.333333333333332,0)" xlink:href="#ap"/><use transform="matrix(0.09722222222222222,0,0,0.09722222222222222,40.83333333333333,0)" xlink:href="#aq"/><use transform="matrix(0.09722222222222222,0,0,0.09722222222222222,58.33333333333332,0)" xlink:href="#ar"/></g><path d="M92-20c74 11 92-29 92-98 0-66-23-103-92-98v196zm150-99C242 9 136 6 6 0v-13l31-5v-200l-31-5v-13h112c81 0 124 34 124 117" id="as"/><path d="M78-41c-2 24 21 26 40 20C122 3 98 2 77 4 5 10 32-84 27-147H6v-11l25-7 21-38h26v38h35v18H78v106" id="at"/><path d="M102-142c-14-17-68-15-54 18 24 26 83 17 83 72 0 62-72 62-120 47v-45h12c4 23 16 37 43 37 35 0 39-37 9-46-31-9-65-19-64-61 0-52 59-55 108-45v43h-11" id="au"/><path d="M12-83c0-55 22-85 75-86 52-1 66 33 63 88H64c-1 37 6 64 44 63 14 0 28-4 39-6 3 28-28 25-55 27-57 4-80-31-80-86zm90-17c2-26 0-63-27-48-10 9-11 28-11 48h38" id="av"/><g id="C"><use transform="matrix(0.09722222222222222,0,0,0.09722222222222222,0,0)" xlink:href="#as"/><use transform="matrix(0.09722222222222222,0,0,0.09722222222222222,25.180555555555557,0)" xlink:href="#aq"/><use transform="matrix(0.09722222222222222,0,0,0.09722222222222222,42.68055555555556,0)" xlink:href="#at"/><use transform="matrix(0.09722222222222222,0,0,0.09722222222222222,54.25,0)" xlink:href="#aq"/><use transform="matrix(0.09722222222222222,0,0,0.09722222222222222,71.75,0)" xlink:href="#au"/><use transform="matrix(0.09722222222222222,0,0,0.09722222222222222,85.36111111111111,0)" xlink:href="#av"/><use transform="matrix(0.09722222222222222,0,0,0.09722222222222222,100.81944444444444,0)" xlink:href="#at"/></g><path d="M75-13V0H4v-13l17-5 84-220h51l83 220 18 5V0H152v-13l28-5-23-61H67L45-18zm38-189L74-98h76" id="aw"/><path d="M186-86c2 69-46 103-114 85l1 62 25 4v12H5V65l18-4v-210l-18-5v-11h67v8c12-8 26-13 46-13 49 2 67 30 68 84zm-83 71c28 0 31-33 31-69 0-34-2-66-30-66-12 0-23 3-31 7v124c9 2 20 4 30 4" id="ax"/><path d="M76-16l18 4V0H7v-12l18-4v-218l-17-4v-12h68v234" id="ay"/><path d="M81 5L15-149c-7-2-13-5-11-16h84v11l-20 5 39 91 35-91-19-5v-11h53c2 11-4 13-11 15C134-81 111-5 75 58 65 77 34 83 8 74V32h11c0 24 29 35 43 12 7-11 13-25 19-39" id="az"/><g id="D"><use transform="matrix(0.09722222222222222,0,0,0.09722222222222222,0,0)" xlink:href="#aw"/><use transform="matrix(0.09722222222222222,0,0,0.09722222222222222,25.180555555555557,0)" xlink:href="#ax"/><use transform="matrix(0.09722222222222222,0,0,0.09722222222222222,44.625,0)" xlink:href="#ax"/><use transform="matrix(0.09722222222222222,0,0,0.09722222222222222,64.06944444444444,0)" xlink:href="#ay"/><use transform="matrix(0.09722222222222222,0,0,0.09722222222222222,73.79166666666667,0)" xlink:href="#az"/></g><path d="M92-101v83l39 5V0H8v-13l28-5v-200l-30-5v-13h197v64h-17l-5-42c-27-3-59-2-89-2v96h57l6-30h15v80h-15l-6-31H92" id="aA"/><path d="M77-16l18 4V0H8v-12l18-4v-133l-17-5v-11h68v149zM51-196c-16 0-27-10-27-27s10-27 27-27 27 11 27 27c0 17-10 27-27 27" id="aB"/><path d="M132-132c-21 0-37 9-50 16v100l26 4V0H10v-12l21-4v-133l-21-5v-11h69l2 34c17-18 35-41 71-40v61c-17 3-14-14-20-22" id="aC"/><g id="E"><use transform="matrix(0.09722222222222222,0,0,0.09722222222222222,0,0)" xlink:href="#aA"/><use transform="matrix(0.09722222222222222,0,0,0.09722222222222222,21.291666666666668,0)" xlink:href="#aB"/><use transform="matrix(0.09722222222222222,0,0,0.09722222222222222,31.013888888888896,0)" xlink:href="#ay"/><use transform="matrix(0.09722222222222222,0,0,0.09722222222222222,40.736111111111114,0)" xlink:href="#at"/><use transform="matrix(0.09722222222222222,0,0,0.09722222222222222,52.30555555555556,0)" xlink:href="#av"/><use transform="matrix(0.09722222222222222,0,0,0.09722222222222222,67.76388888888889,0)" xlink:href="#aC"/></g><path d="M222-170c0 37-18 56-47 65l63 87 25 5V0h-76l-66-100H92v82l30 5V0H8v-13l28-5v-200l-30-5v-13c89 5 214-24 216 66zM92-119c45 2 75-3 75-50s-30-49-75-47v97" id="aD"/><path d="M126-114c3-31-27-37-49-25v123l15 4V0H10v-12l16-4v-133l-16-5v-11h64l2 14c24-16 81-33 96 3 30-24 105-39 105 27v105l17 4V0h-82v-12l14-4v-98c4-33-27-37-51-24 5 35 0 82 2 122l17 4V0h-83v-12l15-4v-98" id="aE"/><path d="M168-150L102 4H81L12-149c-7-2-15-4-12-16h85v11l-20 5 42 94 38-94-19-5v-11h54v11" id="aF"/><g id="F"><use transform="matrix(0.09722222222222222,0,0,0.09722222222222222,0,0)" xlink:href="#aD"/><use transform="matrix(0.09722222222222222,0,0,0.09722222222222222,25.180555555555557,0)" xlink:href="#av"/><use transform="matrix(0.09722222222222222,0,0,0.09722222222222222,40.63888888888889,0)" xlink:href="#aE"/><use transform="matrix(0.09722222222222222,0,0,0.09722222222222222,69.70833333333334,0)" xlink:href="#ap"/><use transform="matrix(0.09722222222222222,0,0,0.09722222222222222,87.20833333333334,0)" xlink:href="#aF"/><use transform="matrix(0.09722222222222222,0,0,0.09722222222222222,104.70833333333333,0)" xlink:href="#av"/></g><path d="M92-112c43 4 61-13 61-54s-18-54-61-50v104zm118-54c0 63-50 78-118 74v74l39 5V0H8v-13l28-5v-200l-30-5v-13c88 3 205-20 204 70" id="aG"/><g id="G"><use transform="matrix(0.09722222222222222,0,0,0.09722222222222222,0,0)" xlink:href="#aG"/><use transform="matrix(0.09722222222222222,0,0,0.09722222222222222,21.291666666666668,0)" xlink:href="#ay"/><use transform="matrix(0.09722222222222222,0,0,0.09722222222222222,31.013888888888896,0)" xlink:href="#ap"/><use transform="matrix(0.09722222222222222,0,0,0.09722222222222222,48.51388888888889,0)" xlink:href="#at"/></g><path d="M6 0v-13l30-5v-200l-30-5v-13h116v13l-30 5v87h96v-87l-30-5v-13h116v13l-30 5v200l30 5V0H158v-13l30-5v-94H92v94l30 5V0H6" id="aH"/><g id="H"><use transform="matrix(0.09722222222222222,0,0,0.09722222222222222,0,0)" xlink:href="#aH"/><use transform="matrix(0.09722222222222222,0,0,0.09722222222222222,27.22222222222222,0)" xlink:href="#aB"/><use transform="matrix(0.09722222222222222,0,0,0.09722222222222222,36.94444444444444,0)" xlink:href="#ar"/><use transform="matrix(0.09722222222222222,0,0,0.09722222222222222,56.38888888888889,0)" xlink:href="#av"/></g><path d="M185-72C185 13 82 14 19-9v-63h16c2 37 21 58 61 58 46 0 69-51 31-71-42-23-106-23-106-90 0-69 87-70 148-56v56h-16l-7-32c-26-25-110-13-82 35 39 34 121 26 121 100" id="aI"/><path d="M109-18c15 0 31-2 42-6v14c-11 9-31 13-51 13-59 0-86-28-88-86-3-75 66-101 135-80v48h-13c-3-20-7-40-34-37-51 7-55 138 9 134" id="aJ"/><g id="I"><use transform="matrix(0.09722222222222222,0,0,0.09722222222222222,0,0)" xlink:href="#aI"/><use transform="matrix(0.09722222222222222,0,0,0.09722222222222222,19.444444444444446,0)" xlink:href="#av"/><use transform="matrix(0.09722222222222222,0,0,0.09722222222222222,34.90277777777778,0)" xlink:href="#ay"/><use transform="matrix(0.09722222222222222,0,0,0.09722222222222222,44.625,0)" xlink:href="#av"/><use transform="matrix(0.09722222222222222,0,0,0.09722222222222222,60.083333333333336,0)" xlink:href="#aJ"/><use transform="matrix(0.09722222222222222,0,0,0.09722222222222222,75.54166666666667,0)" xlink:href="#at"/><use transform="matrix(0.09722222222222222,0,0,0.09722222222222222,87.11111111111111,0)" xlink:href="#av"/><use transform="matrix(0.09722222222222222,0,0,0.09722222222222222,102.56944444444444,0)" xlink:href="#ar"/></g><path d="M76-116c0 86 71 126 135 84l6-39h16l-1 60C138 21 18 1 18-115c0-117 106-141 210-112l1 57h-16l-5-34c-13-9-32-16-54-16-60 0-78 42-78 104" id="aK"/><path d="M73-51c-3 31 27 38 51 25v-123l-16-5v-11h66v149l17 4V0h-65l-2-14C94 9 22 18 22-44v-105l-17-5v-11h68v114" id="aL"/><path d="M127-114c3-31-26-38-50-25v123l15 4V0H10v-12l16-4v-133l-16-5v-11h64l2 14c31-23 102-32 102 30v105l17 4V0h-82v-12l14-4v-98" id="aM"/><g id="J"><use transform="matrix(0.09722222222222222,0,0,0.09722222222222222,0,0)" xlink:href="#aK"/><use transform="matrix(0.09722222222222222,0,0,0.09722222222222222,25.180555555555557,0)" xlink:href="#ap"/><use transform="matrix(0.09722222222222222,0,0,0.09722222222222222,42.68055555555556,0)" xlink:href="#ay"/><use transform="matrix(0.09722222222222222,0,0,0.09722222222222222,52.40277777777778,0)" xlink:href="#aL"/><use transform="matrix(0.09722222222222222,0,0,0.09722222222222222,71.84722222222223,0)" xlink:href="#aE"/><use transform="matrix(0.09722222222222222,0,0,0.09722222222222222,100.91666666666667,0)" xlink:href="#aM"/><use transform="matrix(0.09722222222222222,0,0,0.09722222222222222,120.36111111111111,0)" xlink:href="#au"/></g></defs></g></svg>